<svg width="324" height="81" viewBox="0 0 324 81" fill="none" xmlns="http://www.w3.org/2000/svg">
<path d="M37.716 9.568C34.776 13.852 32.34 18.64 31.5 23.848C30.996 26.536 30.996 29.392 31.668 32.08C32.088 33.676 32.844 35.104 33.684 36.532C34.356 37.624 35.112 38.716 35.784 39.892C36.96 41.74 38.052 43.588 39.06 45.604C43.26 53.752 47.796 65.008 43.68 74.08C42.084 78.112 38.136 80.8 33.684 80.8H0.672C4.2 79.372 7.14 75.172 8.736 71.98C10.584 68.368 11.256 64.252 10.752 60.22C10.5 57.532 9.744 54.928 8.652 52.492C7.476 49.468 5.628 46.78 4.368 43.756C0.42 34.432 0 24.52 2.52 14.692C4.704 6.376 12.348 0.579995 21 0.579995H46.956C45.612 1.084 43.092 2.932 41.244 5.032C39.984 6.45999 38.808 7.972 37.716 9.568ZM44.4209 32.332C39.1289 1.504 75.7529 0.495996 98.6849 0.663999C107.085 0.663999 115.401 2.428 122.961 6.04C130.185 9.4 137.493 14.86 140.517 23.344C151.017 53.332 132.705 80.128 102.045 80.8C101.961 80.8 101.961 80.8 101.877 80.8H50.6369C50.6369 80.8 64.4129 71.644 47.4449 55.516H79.3649C89.1089 55.684 90.4529 64.084 83.1449 71.728C81.3809 73.576 81.7169 77.188 90.3689 77.02C107.589 78.112 119.601 52.828 104.733 51.652C92.8889 50.644 49.2929 60.892 44.4209 32.332ZM91.4609 6.45999C69.6209 16.456 73.1489 48.376 98.2649 45.94C110.445 44.848 124.893 21.244 104.901 7.3C101.037 4.528 95.8289 4.528 91.4609 6.45999ZM242.086 0.663999C232.174 5.28399 238.894 12.34 226.21 26.704C219.238 34.432 203.866 39.808 200.17 42.244C186.562 50.98 180.85 73.828 199.918 80.8H140.782C157.918 68.116 126.082 51.4 189.082 27.04C193.45 25.36 201.43 21.748 202.186 16.12C203.614 4.948 186.982 4.276 184.882 4.192C178.666 3.856 173.626 6.292 174.886 9.316C175.558 10.912 180.514 11.584 181.27 17.128C181.774 21.748 176.818 25.948 173.878 25.948H146.242C162.37 9.736 143.89 0.663999 143.89 0.663999H242.086ZM276.409 0.495996C302.533 0.495996 323.785 18.472 323.785 40.564C323.785 62.74 302.533 80.716 276.409 80.716C250.201 80.716 228.949 62.74 228.949 40.564C228.949 18.472 250.201 0.495996 276.409 0.495996ZM276.409 77.356C285.145 77.356 292.201 60.892 292.201 40.564C292.201 20.32 285.145 3.856 276.409 3.856C267.673 3.856 260.533 20.32 260.533 40.564C260.533 60.892 267.673 77.356 276.409 77.356Z" fill="url(#paint0_linear_359_6714)"/>
<defs>
<linearGradient id="paint0_linear_359_6714" x1="171" y1="-26" x2="171" y2="502" gradientUnits="userSpaceOnUse">
<stop offset="0.055" stop-color="#EA43C7"/>
<stop offset="0.24" stop-color="#270F28"/>
</linearGradient>
</defs>
</svg>
