<svg width="654" height="117" viewBox="0 0 654 117" fill="none" xmlns="http://www.w3.org/2000/svg">
<path d="M0.0960002 15.992V0.375999H74.08V15.992H46.432V91H27.744V15.992H0.0960002ZM103.725 51.576V91H85.293V0.375999H103.213V34.936H104.237C107.181 27.128 114.093 22.264 124.461 22.136C138.541 22.264 147.885 31.736 147.757 47.736V91H129.325V51.064C129.453 42.616 124.845 37.624 117.037 37.496C109.357 37.624 103.853 42.744 103.725 51.576ZM158.971 72.056C158.971 56.824 171.131 51.96 184.059 51.064L200.955 50.296V44.92C200.955 39.032 196.987 35.832 190.203 35.704C183.803 35.832 179.835 38.648 178.939 43.384H161.275C162.299 31.48 172.667 22.264 190.715 22.136C205.435 22.264 219.387 28.92 219.387 45.176V91H201.979V81.528H201.211C198.011 87.928 191.611 92.28 181.499 92.28C168.571 92.28 158.971 85.496 158.971 72.056ZM176.635 71.544C176.635 76.664 180.859 79.48 186.619 79.48C195.195 79.48 201.083 73.848 200.955 66.68V61.816C198.139 61.944 190.203 62.328 187.131 62.584C180.731 63.224 176.635 66.296 176.635 71.544ZM251.85 51.576V91H233.418V23.16H251.082V34.936H251.85C254.922 27.128 262.218 22.264 272.33 22.136C286.41 22.264 295.754 31.864 295.626 47.736V91H277.194V51.064C277.194 42.616 272.714 37.624 264.906 37.496C257.226 37.624 251.978 42.744 251.85 51.576ZM309.918 91V0.375999H328.35V49.016H329.374L351.646 23.16H372.894L347.422 52.6L374.174 91H352.414L333.598 63.48L328.35 69.496V91H309.918ZM421.801 116.344C418.089 116.472 414.761 116.344 412.329 116.088V101.752C414.761 101.88 417.577 102.008 419.753 102.008C423.593 102.008 426.537 101.624 428.713 95.864L429.737 92.792L405.417 23.16H424.873L439.209 73.08H439.977L454.313 23.16H473.769L447.401 98.424C443.433 109.432 436.137 116.472 421.801 116.344ZM511.138 92.28C490.53 92.28 477.73 78.2 477.602 57.208C477.73 36.344 490.53 22.264 511.138 22.136C531.618 22.264 544.29 36.344 544.418 57.208C544.29 78.2 531.618 92.28 511.138 92.28ZM496.546 57.208C496.418 69.112 501.41 77.944 511.138 77.944C520.61 77.944 525.602 69.112 525.474 57.208C525.602 45.304 520.61 36.344 511.138 36.472C501.41 36.344 496.418 45.304 496.546 57.208ZM599.438 62.072V23.16H617.87V91H600.206V78.712H599.438C596.494 86.648 589.07 91.896 578.958 91.768C565.262 91.896 556.046 82.296 555.918 66.424V23.16H574.35V63.096C574.478 71.16 579.086 76.152 586.382 76.152C593.166 76.152 599.566 71.416 599.438 62.072ZM643.426 92.024C637.538 92.152 632.674 87.416 632.93 81.528C632.674 75.896 637.538 71.16 643.426 71.288C648.93 71.16 653.794 75.896 653.922 81.528C653.794 87.416 648.93 92.152 643.426 92.024Z" fill="white"/>
</svg>
