<svg width="88" height="72" viewBox="0 0 88 72" fill="none" xmlns="http://www.w3.org/2000/svg">
<path d="M87.0981 71.8731H34.0981C15.9284 71.5722 -0.32954 68.5572 0.175527 48.7577C1.07697 15.093 50.5607 28.459 53.6742 16.5973C57.6891 1.52207 35.2041 4.13383 35.2041 4.13383C37.2116 4.9404 38.8163 5.94541 39.9223 6.95043C44.5382 10.8681 41.6293 18.5049 35.5045 18.5049H7.09938C17.0345 9.76063 8.40363 0.11377 8.40363 0.11377H59.7925C75.4496 0.11377 85.9921 16.194 80.0655 30.7635C67.9183 60.6131 87.0917 71.8667 87.0917 71.8667L87.0981 71.8731ZM54.3774 22.8258C18.7478 36.2943 25.0708 62.924 35.0059 67.1489C40.8302 69.6582 43.6368 63.2312 40.8302 53.6804C35.6133 35.6926 53.8787 23.2291 54.3774 22.8258Z" fill="url(#paint0_linear_357_168)"/>
<defs>
<linearGradient id="paint0_linear_357_168" x1="42.55" y1="-25.7862" x2="43.6268" y2="60.1649" gradientUnits="userSpaceOnUse">
<stop stop-color="#FDF251"/>
<stop offset="0.49" stop-color="#EB8661"/>
<stop offset="1" stop-color="#EA40CB"/>
</linearGradient>
</defs>
</svg>
