<svg width="36" height="54" viewBox="0 0 36 54" fill="none" xmlns="http://www.w3.org/2000/svg">
<path d="M18.1082 53.3501C8.77031 53.3501 2.828 48.4091 0.584473 40.2961L10.4075 37.4901C11.9234 42.2481 14.2882 44.0171 18.1082 44.0171C22.3527 44.0171 25.0207 41.3941 25.0207 37.0021V33.7081C25.0207 29.2551 22.1102 27.3641 19.0784 27.3641C16.3498 27.3641 14.1669 28.4621 12.5297 30.3531L2.76736 28.5231L5.07153 0.829102H33.4491V10.1011H14.2275L13.2574 20.9591C15.5009 19.4951 18.4114 18.5801 21.5645 18.5801C29.6291 18.5801 35.632 23.7651 35.632 33.2201V37.8561C35.632 47.3721 28.9621 53.3501 18.1082 53.3501Z" fill="#FF6464"/>
</svg>
