<svg width="38" height="54" viewBox="0 0 38 54" fill="none" xmlns="http://www.w3.org/2000/svg">
<path d="M19.7279 53.497C9.29855 53.497 2.99242 48.434 0.506348 41.358L9.66236 36.905C11.7846 41.907 15.1196 44.164 19.7279 44.164C24.2756 44.164 27.0649 41.724 27.0649 37.454C27.0649 33.306 25.3671 30.012 17.545 30.012H10.2081V21.228H17.7876C24.6394 20.984 25.549 17.995 25.549 14.579C25.549 11.285 23.0629 9.211 19.7279 9.211C16.1504 9.211 13.8462 11.224 12.6942 14.884L3.17433 11.102C5.47849 4.636 11.1783 0 19.9705 0C29.369 0 36.1602 5.551 36.1602 14.152C36.1602 19.825 33.4316 23.79 28.3988 25.132V25.437C34.2199 26.718 37.7974 31.903 37.7974 37.698V39.04C37.7974 48.129 30.3392 53.497 19.7279 53.497Z" fill="#FF6464"/>
</svg>
