<svg width="88" height="72" viewBox="0 0 88 72" fill="none" xmlns="http://www.w3.org/2000/svg">
<path d="M87.646 71.8731H34.6459C16.4763 71.5722 0.218312 68.5572 0.723378 48.7577C1.62483 15.093 51.1086 28.459 54.2221 16.5973C58.237 1.52207 35.752 4.13383 35.752 4.13383C37.7595 4.9404 39.3642 5.94541 40.4702 6.95043C45.0861 10.8681 42.1772 18.5049 36.0525 18.5049H7.64727C17.5824 9.76063 8.95148 0.11377 8.95148 0.11377H60.3404C75.9975 0.11377 86.5399 16.194 80.6134 30.7635C68.4662 60.6131 87.6396 71.8667 87.6396 71.8667L87.646 71.8731ZM54.9253 22.8258C19.2958 36.2943 25.6187 62.924 35.5538 67.1489C41.378 69.6582 44.1847 63.2312 41.378 53.6804C36.1611 35.6926 54.4267 23.2291 54.9253 22.8258Z" fill="url(#paint0_linear_357_160)"/>
<defs>
<linearGradient id="paint0_linear_357_160" x1="43.2193" y1="-15.6976" x2="44.2961" y2="70.2535" gradientUnits="userSpaceOnUse">
<stop stop-color="#FDF251"/>
<stop offset="0.49" stop-color="#EB8661"/>
<stop offset="1" stop-color="#EA40CB"/>
</linearGradient>
</defs>
</svg>
