<svg width="155" height="43" viewBox="0 0 155 43" fill="none" xmlns="http://www.w3.org/2000/svg">
<path d="M143.016 33.8987C142.996 37.3387 142.101 40.1787 140.232 42.6587H137.489C138.92 40.8187 140.014 37.1787 140.033 33.8987C140.014 30.6187 138.92 26.9787 137.489 25.1387H140.232C142.101 27.6187 142.996 30.4587 143.016 33.8987Z" fill="black"/>
<path d="M125.991 39.579V37.459L131.001 32.779C132.333 31.519 133.028 30.739 133.028 29.619C133.028 28.359 132.094 27.579 130.802 27.579C129.49 27.579 128.615 28.419 128.615 29.779H125.832C125.832 27.019 127.879 25.239 130.841 25.259C133.843 25.239 135.851 26.959 135.851 29.419C135.851 31.039 135.076 32.359 132.154 34.979L130.046 37.059V37.179H136.05V39.579H125.991Z" fill="black"/>
<path d="M118.485 39.779C115.264 39.779 112.958 38.079 112.958 35.779C112.958 33.999 114.31 32.539 116.059 32.259V32.179C114.548 31.879 113.495 30.599 113.475 29.059C113.495 26.859 115.602 25.239 118.485 25.259C121.348 25.239 123.455 26.859 123.455 29.059C123.455 30.599 122.381 31.879 120.91 32.179V32.259C122.6 32.539 123.972 33.999 123.972 35.779C123.972 38.079 121.666 39.779 118.485 39.779ZM116.02 35.499C116 36.679 116.994 37.539 118.485 37.539C119.956 37.539 120.95 36.699 120.95 35.499C120.95 34.259 119.896 33.359 118.485 33.339C117.053 33.359 116 34.259 116.02 35.499ZM116.338 29.339C116.338 30.479 117.232 31.259 118.485 31.259C119.698 31.259 120.592 30.479 120.592 29.339C120.592 28.239 119.717 27.459 118.485 27.459C117.212 27.459 116.338 28.239 116.338 29.339Z" fill="black"/>
<path d="M105.571 25.2589C108.473 25.2589 111.237 26.9989 111.217 32.1389C111.237 36.9389 108.97 39.7789 105.451 39.7789C102.608 39.7789 100.68 37.9789 100.402 35.6189H103.265C103.503 36.6389 104.318 37.2589 105.451 37.2589C107.36 37.2589 108.374 35.5189 108.394 32.6989H108.235C107.599 33.9589 106.207 34.6989 104.656 34.6989C102.131 34.6989 100.263 32.7789 100.243 30.1389C100.243 27.2989 102.39 25.2389 105.571 25.2589ZM103.105 30.0589C103.086 31.4589 104.119 32.5589 105.571 32.5389C106.982 32.5589 108.076 31.3989 108.076 30.0589C108.076 28.6989 107.022 27.5589 105.571 27.5389C104.139 27.5589 103.066 28.6589 103.105 30.0589Z" fill="black"/>
<path d="M97.1854 25.4189V39.5789H94.2828V28.2189H94.1635L90.9429 30.2589V27.6589L94.4419 25.4189H97.1854Z" fill="black"/>
<path d="M84.0312 33.8987C84.0511 30.4587 84.9458 27.6187 86.8145 25.1387H89.5581C88.1267 26.9787 87.0332 30.6187 87.0133 33.8987C87.0332 37.1787 88.1267 40.8187 89.5581 42.6587H86.8145C84.9458 40.1787 84.0511 37.3387 84.0312 33.8987Z" fill="black"/>
<path d="M71.0669 39.5793V28.9793H73.8502V30.8193H73.9695C74.3472 29.4993 75.3213 28.8193 76.5142 28.8193C76.8124 28.8193 77.1702 28.8593 77.4287 28.8993V31.4993C77.1702 31.3993 76.6136 31.3393 76.1961 31.3393C74.9039 31.3393 73.9496 32.2393 73.9297 33.5393V39.5793H71.0669Z" fill="black"/>
<path d="M64.4623 39.7793C61.2019 39.7793 59.2337 37.6793 59.2139 34.3393C59.2337 31.0593 61.2417 28.8393 64.3431 28.8193C67.0866 28.8393 69.2735 30.5993 69.2735 34.2193V35.0193H62.0767C62.0767 36.6193 63.0111 37.6193 64.5021 37.6193C65.4763 37.6193 66.1721 37.1793 66.4504 36.5793H69.1939C68.7764 38.5193 67.0468 39.7793 64.4623 39.7793ZM62.0767 33.2193H66.5697C66.5498 31.9193 65.6552 30.9993 64.3828 30.9793C63.0309 30.9993 62.1164 31.9993 62.0767 33.2193Z" fill="black"/>
<path d="M57.3882 25.4189V39.5789H54.5254V25.4189H57.3882Z" fill="black"/>
<path d="M52.2627 25.4189V39.5789H49.3999V25.4189H52.2627Z" fill="black"/>
<path d="M44.2743 39.5786V28.9786H47.1371V39.5786H44.2743ZM44.1152 26.0986C44.1351 25.2986 44.8309 24.6386 45.7057 24.6586C46.5606 24.6386 47.2564 25.2986 47.2564 26.0986C47.2564 26.9186 46.5606 27.5786 45.7057 27.5786C44.8309 27.5786 44.1351 26.9186 44.1152 26.0986Z" fill="black"/>
<path d="M36.5283 39.5793V28.9793H39.3116V30.8193H39.4309C39.8086 29.4993 40.7828 28.8193 41.9756 28.8193C42.2738 28.8193 42.6317 28.8593 42.8901 28.8993V31.4993C42.6317 31.3993 42.075 31.3393 41.6575 31.3393C40.3653 31.3393 39.411 32.2393 39.3911 33.5393V39.5793H36.5283Z" fill="black"/>
<path d="M27.4702 33.4189V39.5789H24.6074V25.4189H27.3907V30.8189H27.5498C28.007 29.5989 29.0806 28.8389 30.6909 28.8189C32.8778 28.8389 34.329 30.3189 34.3092 32.8189V39.5789H31.4464V33.3389C31.4662 32.0189 30.7505 31.2389 29.5378 31.2189C28.345 31.2389 27.4901 32.0389 27.4702 33.4189Z" fill="black"/>
<path d="M11.375 27.8589V25.4189H22.866V27.8589H18.5718V39.5789H15.6692V27.8589H11.375Z" fill="black"/>
<path d="M148.142 9.41934V15.5793H145.279V4.97934H148.023V6.81934H148.142C148.619 5.59934 149.752 4.83934 151.323 4.81934C153.51 4.83934 154.961 6.33934 154.941 8.81934V15.5793H152.078V9.33934C152.078 8.01934 151.383 7.23934 150.17 7.21934C148.977 7.23934 148.162 8.03934 148.142 9.41934Z" fill="black"/>
<path d="M138.324 15.7793C135.124 15.7793 133.136 13.5793 133.116 10.2993C133.136 7.03934 135.124 4.83934 138.324 4.81934C141.505 4.83934 143.474 7.03934 143.493 10.2993C143.474 13.5793 141.505 15.7793 138.324 15.7793ZM136.058 10.2993C136.038 12.1593 136.814 13.5393 138.324 13.5393C139.796 13.5393 140.571 12.1593 140.551 10.2993C140.571 8.43934 139.796 7.03934 138.324 7.05934C136.814 7.03934 136.038 8.43934 136.058 10.2993Z" fill="black"/>
<path d="M128.899 8.13934C128.76 7.37934 128.124 6.89934 127.15 6.89934C126.215 6.89934 125.52 7.33934 125.52 7.97934C125.52 8.45934 125.897 8.83934 126.871 9.05934L128.78 9.41934C130.808 9.85934 131.802 10.7793 131.802 12.2993C131.802 14.3793 129.953 15.7793 127.15 15.7793C124.287 15.7793 122.617 14.4993 122.378 12.4193H125.281C125.42 13.2593 126.076 13.6993 127.15 13.6993C128.184 13.6993 128.879 13.2793 128.899 12.5793C128.879 12.0393 128.442 11.6993 127.468 11.4993L125.718 11.1393C123.691 10.7593 122.657 9.69934 122.657 8.13934C122.657 6.09934 124.406 4.83934 127.11 4.81934C129.794 4.83934 131.424 6.09934 131.563 8.13934H128.899Z" fill="black"/>
<path d="M111.77 15.5789V1.41895H114.632V9.01894H114.791L118.251 4.97894H121.551L117.595 9.57895L121.75 15.5789H118.37L115.447 11.2789L114.632 12.2189V15.5789H111.77Z" fill="black"/>
<path d="M105.32 15.7793C102.059 15.7793 100.131 13.5393 100.111 10.2993C100.131 7.05934 102.099 4.83934 105.28 4.81934C108.023 4.83934 109.852 6.43934 109.972 8.85934H107.268C107.109 7.81934 106.413 7.09934 105.32 7.09934C103.948 7.09934 103.033 8.25934 103.053 10.2593C103.033 12.3193 103.948 13.4993 105.32 13.4993C106.353 13.4993 107.089 12.8593 107.268 11.7393H109.972C109.852 14.1393 108.083 15.7793 105.32 15.7793Z" fill="black"/>
<path d="M88.9849 12.6193C88.9849 10.2393 90.8735 9.47934 92.8815 9.33934L95.5057 9.21934V8.37934C95.5057 7.45934 94.8894 6.95934 93.8357 6.93934C92.8417 6.95934 92.2254 7.39934 92.0862 8.13934H89.3427C89.5018 6.27934 91.1121 4.83934 93.9153 4.81934C96.2015 4.83934 98.3685 5.87934 98.3685 8.41934V15.5793H95.6647V14.0993H95.5455C95.0484 15.0993 94.0544 15.7793 92.4839 15.7793C90.4759 15.7793 88.9849 14.7193 88.9849 12.6193ZM91.7284 12.5393C91.7284 13.3393 92.3844 13.7793 93.2791 13.7793C94.6111 13.7793 95.5256 12.8993 95.5057 11.7793V11.0193C95.0683 11.0393 93.8357 11.0993 93.3586 11.1393C92.3646 11.2393 91.7284 11.7193 91.7284 12.5393Z" fill="black"/>
<path d="M84.2565 1.41895H87.1591V11.2989C87.1392 14.0589 85.2108 15.7789 82.3878 15.7789C79.843 15.7789 77.855 14.4189 77.855 11.6189H80.7575C80.7973 12.7589 81.4733 13.3989 82.507 13.4189C83.6402 13.3989 84.2565 12.6789 84.2565 11.2989V1.41895Z" fill="black"/>
<path d="M71.7261 1.41895V15.5789H68.8633V1.41895H71.7261Z" fill="black"/>
<path d="M62.2587 15.7793C58.9983 15.7793 57.0301 13.6793 57.0103 10.3393C57.0301 7.05934 59.0381 4.83934 62.1395 4.81934C64.883 4.83934 67.0698 6.59934 67.0698 10.2193V11.0193H59.8731C59.8731 12.6193 60.8074 13.6193 62.2985 13.6193C63.2726 13.6193 63.9685 13.1793 64.2468 12.5793H66.9903C66.5728 14.5193 64.8432 15.7793 62.2587 15.7793ZM59.8731 9.21934H64.3661C64.3462 7.91934 63.4516 6.99934 62.1792 6.97934C60.8273 6.99934 59.9128 7.99934 59.8731 9.21934Z" fill="black"/>
<path d="M45.8843 12.6193C45.8843 10.2393 47.7729 9.47934 49.7809 9.33934L52.4051 9.21934V8.37934C52.4051 7.45934 51.7888 6.95934 50.7351 6.93934C49.7411 6.95934 49.1248 7.39934 48.9857 8.13934H46.2421C46.4012 6.27934 48.0115 4.83934 50.8147 4.81934C53.1009 4.83934 55.2679 5.87934 55.2679 8.41934V15.5793H52.5642V14.0993H52.4449C51.9479 15.0993 50.9538 15.7793 49.3833 15.7793C47.3753 15.7793 45.8843 14.7193 45.8843 12.6193ZM48.6278 12.5393C48.6278 13.3393 49.2839 13.7793 50.1785 13.7793C51.5105 13.7793 52.425 12.8993 52.4051 11.7793V11.0193C51.9677 11.0393 50.7351 11.0993 50.258 11.1393C49.264 11.2393 48.6278 11.7193 48.6278 12.5393Z" fill="black"/>
<path d="M37.3037 9.41894V15.5789H34.4409V1.41895H37.2242V6.81894H37.3833C37.8405 5.59895 38.9141 4.83894 40.5244 4.81894C42.7113 4.83894 44.1625 6.31894 44.1427 8.81894V15.5789H41.2799V9.33895C41.2997 8.01895 40.584 7.23894 39.3713 7.21894C38.1785 7.23894 37.3236 8.03894 37.3037 9.41894Z" fill="black"/>
<path d="M27.9909 15.7793C24.7305 15.7793 22.8021 13.5393 22.7822 10.2993C22.8021 7.05934 24.7703 4.83934 27.9512 4.81934C30.6947 4.83934 32.5237 6.43934 32.643 8.85934H29.9392C29.7802 7.81934 29.0844 7.09934 27.9909 7.09934C26.6192 7.09934 25.7047 8.25934 25.7246 10.2593C25.7047 12.3193 26.6192 13.4993 27.9909 13.4993C29.0247 13.4993 29.7603 12.8593 29.9392 11.7393H32.643C32.5237 14.1393 30.7544 15.7793 27.9909 15.7793Z" fill="black"/>
<path d="M18.0936 15.5786V4.97865H20.9564V15.5786H18.0936ZM17.9346 2.09865C17.9545 1.29865 18.6503 0.638646 19.525 0.658646C20.3799 0.638646 21.0757 1.29865 21.0757 2.09865C21.0757 2.91865 20.3799 3.57865 19.525 3.57865C18.6503 3.57865 17.9545 2.91865 17.9346 2.09865Z" fill="black"/>
<path d="M0.64209 1.41895H4.2206L8.15696 11.0189H8.31601L12.2126 1.41895H15.8309V15.5789H12.9681V6.29894H12.8488L9.19075 15.4989H7.24245L3.58442 6.29894H3.46514V15.5789H0.64209V1.41895Z" fill="black"/>
</svg>
