<svg width="36" height="53" viewBox="0 0 36 53" fill="none" xmlns="http://www.w3.org/2000/svg">
<path d="M0.842066 45.3954C5.81421 39.6614 11.3927 33.0734 15.8191 27.5834C20.6094 21.5444 22.6103 18.2504 22.6103 14.5904C22.6103 11.6624 20.5487 9.5274 17.2137 9.5274C13.3937 9.5274 10.9076 12.4554 9.87681 16.7254L-0.00683594 13.9194C2.17605 5.92841 7.81519 0.316406 17.2137 0.316406C26.7336 0.316406 33.161 6.1114 33.161 13.6754V15.0174C33.161 20.6904 30.6749 25.2654 24.3688 32.9514C21.2157 36.7944 17.2744 41.4304 14.9702 44.1754C16.9106 43.9924 20.67 43.5654 22.1253 43.4434H35.1013V52.8374H0.842066V45.3954Z" fill="#6496FF"/>
</svg>
