<svg width="65" height="111" viewBox="0 0 65 111" fill="none" xmlns="http://www.w3.org/2000/svg">
<path d="M49.6998 110.316C39.7634 110.316 34.998 105.369 34.998 95.1693V80.6343C34.998 70.4343 39.7634 65.4873 49.6998 65.4873C59.6361 65.4873 64.4015 70.4343 64.4015 80.6343V95.1693C64.4015 105.369 59.6361 110.316 49.6998 110.316ZM44.0219 95.9343C44.0219 100.218 45.8469 102.258 49.6998 102.258C53.5526 102.258 55.3777 100.218 55.3777 95.9343V79.8693C55.3777 75.5853 53.5526 73.5453 49.6998 73.5453C45.8469 73.5453 44.0219 75.5853 44.0219 79.8693V95.9343Z" fill="black"/>
<path d="M15.1415 110.316C7.38506 110.316 2.01133 106.695 0.338379 99.7083L8.50036 97.4133C9.66636 101.34 11.897 102.513 15.1415 102.513C18.7409 102.513 20.718 100.269 20.718 96.2403V93.3843L20.9208 90.6303C19.2478 92.4153 16.561 93.4353 13.3671 93.4863C5.61072 93.5373 0.338379 88.6413 0.338379 80.5323V78.9003C0.338379 70.6383 5.8135 65.4873 14.9894 65.4873C24.0639 65.4873 29.7418 70.6383 29.7418 81.2463V94.2003C29.7418 104.655 24.5709 110.316 15.1415 110.316ZM9.2101 80.1243C9.2101 83.8473 11.2886 86.1423 14.7866 86.1423C17.727 86.1423 19.9576 84.5613 20.718 81.9603V79.4613C20.718 75.3303 18.2846 73.1883 15.0401 73.1883C11.4407 73.1883 9.2101 75.3813 9.2101 79.2063V80.1243Z" fill="black"/>
<path d="M49.5985 45.3163C41.8421 45.3163 36.4684 41.6953 34.7954 34.7083L42.9574 32.4133C44.1234 36.3403 46.354 37.5133 49.5985 37.5133C53.1979 37.5133 55.175 35.2693 55.175 31.2403V28.3843L55.3778 25.6303C53.7049 27.4153 51.018 28.4353 47.8242 28.4863C40.0677 28.5373 34.7954 23.6413 34.7954 15.5323V13.9003C34.7954 5.63831 40.2705 0.487305 49.4464 0.487305C58.5209 0.487305 64.1988 5.63831 64.1988 16.2463V29.2003C64.1988 39.6553 59.0279 45.3163 49.5985 45.3163ZM43.6671 15.1243C43.6671 18.8473 45.7457 21.1423 49.2436 21.1423C52.184 21.1423 54.4146 19.5613 55.175 16.9603V14.4613C55.175 10.3303 52.7416 8.18831 49.4971 8.18831C45.8977 8.18831 43.6671 10.3813 43.6671 14.2063V15.1243Z" fill="black"/>
<path d="M0.794434 44.5003V36.7483H12.4544V10.2793H3.37991V4.26127C7.9932 3.80227 10.9842 2.88427 13.4683 1.40527H21.8838V36.7483H29.843V44.5003H0.794434Z" fill="black"/>
</svg>
