<svg width="90" height="72" viewBox="0 0 90 72" fill="none" xmlns="http://www.w3.org/2000/svg">
<path d="M49.77 0.150211C57.29 0.150211 64.73 1.73021 71.49 4.96021C77.95 7.97021 84.49 12.8502 87.2 20.4402C96.6 47.2702 80.21 71.2502 52.77 71.8502H6.77001C6.77001 71.8502 19.1 63.6602 3.91001 49.2302H32.47C41.19 49.3802 42.39 56.9002 35.85 63.7402C34.27 65.3902 34.57 68.6302 42.31 68.4802C57.72 69.4602 68.47 46.8302 55.16 45.7802C44.56 44.8802 5.55001 54.0502 1.19001 28.4902C-3.51999 0.900211 29.25 0.00021103 49.77 0.150211ZM49.39 40.6602C60.29 39.6802 73.22 18.5602 55.33 6.08021C51.87 3.60021 47.21 3.60021 43.3 5.33021C23.76 14.2802 26.91 42.8402 49.39 40.6602Z" fill="url(#paint0_linear_357_191)"/>
<defs>
<linearGradient id="paint0_linear_357_191" x1="45.31" y1="-0.349789" x2="45.31" y2="69.4202" gradientUnits="userSpaceOnUse">
<stop stop-color="#FDF251"/>
<stop offset="0.49" stop-color="#EB8661"/>
<stop offset="1" stop-color="#EA40CB"/>
</linearGradient>
</defs>
</svg>
