<svg width="85" height="72" viewBox="0 0 85 72" fill="none" xmlns="http://www.w3.org/2000/svg">
<path d="M32.3567 35.9935C30.8543 52.8803 44.702 66.7456 54.0362 67.6482C77.4227 69.9591 32.6572 42.222 63.9713 42.222H82.7419C82.7419 42.222 68.8877 56.3946 84.0461 71.8667H39.1783C39.1783 71.8667 15.0885 72.3724 4.55246 52.7715C-2.87649 38.8037 0.1347 21.3151 11.8791 10.6633C18.202 4.93405 27.8367 0.107422 41.9913 0.107422H56.8492C62.2707 0.107422 66.6884 1.21486 70.3006 3.02005C73.9128 4.83163 76.6235 7.34097 78.8292 10.2536C80.6385 12.6669 81.9427 15.2787 82.9464 17.8904L83.2469 18.4921C83.2469 18.6906 83.3492 18.8954 83.4451 18.9914C86.354 27.3324 80.1334 35.9743 71.2979 35.9743H32.3503L32.3567 35.9935ZM32.7595 31.6726C32.9577 31.6726 48.2183 32.4791 55.545 25.9433C57.7507 23.7349 59.3618 20.8158 59.9627 17.7048C60.9665 12.8781 60.2632 8.46121 58.7608 6.15031C57.4566 4.14028 55.9477 3.43613 52.636 4.44115C48.7234 5.54858 43.3019 9.56864 36.6785 20.7198C35.3743 23.0307 34.3705 25.3416 33.6673 27.6525C33.2645 29.0608 32.9641 30.3667 32.7659 31.6726H32.7595Z" fill="url(#paint0_linear_357_163)"/>
<defs>
<linearGradient id="paint0_linear_357_163" x1="41.7292" y1="-19.1159" x2="42.806" y2="66.8352" gradientUnits="userSpaceOnUse">
<stop stop-color="#FDF251"/>
<stop offset="0.49" stop-color="#EB8661"/>
<stop offset="1" stop-color="#EA40CB"/>
</linearGradient>
</defs>
</svg>
