<svg width="85" height="72" viewBox="0 0 85 72" fill="none" xmlns="http://www.w3.org/2000/svg">
<path d="M32.3372 35.9935C30.8347 52.8803 44.6825 66.7456 54.0167 67.6482C77.4032 69.9591 32.6377 42.222 63.9518 42.222H82.7224C82.7224 42.222 68.8681 56.3946 84.0265 71.8667H39.1588C39.1588 71.8667 15.069 72.3724 4.53293 52.7715C-2.89602 38.8037 0.115169 21.3151 11.8596 10.6633C18.1825 4.93405 27.8172 0.107422 41.9718 0.107422H56.8297C62.2512 0.107422 66.6689 1.21486 70.2811 3.02005C73.8932 4.83163 76.604 7.34097 78.8097 10.2536C80.619 12.6669 81.9232 15.2787 82.9269 17.8904L83.2274 18.4921C83.2274 18.6906 83.3297 18.8954 83.4256 18.9914C86.3345 27.3324 80.1139 35.9743 71.2784 35.9743H32.3308L32.3372 35.9935ZM32.7335 31.6726C32.9317 31.6726 48.1924 32.4791 55.5191 25.9433C57.7247 23.7349 59.3359 20.8158 59.9368 17.7048C60.9406 12.8781 60.2373 8.46121 58.7349 6.15031C57.4307 4.14028 55.9219 3.43613 52.6102 4.44115C48.6975 5.54858 43.276 9.56864 36.6526 20.7198C35.3484 23.0307 34.3447 25.3416 33.6414 27.6525C33.2386 29.0608 32.9381 30.3667 32.7399 31.6726H32.7335Z" fill="url(#paint0_linear_357_166)"/>
<defs>
<linearGradient id="paint0_linear_357_166" x1="41.6649" y1="-22.4318" x2="42.7417" y2="63.5193" gradientUnits="userSpaceOnUse">
<stop stop-color="#FDF251"/>
<stop offset="0.49" stop-color="#EB8661"/>
<stop offset="1" stop-color="#EA40CB"/>
</linearGradient>
</defs>
</svg>
