<svg width="90" height="72" viewBox="0 0 90 72" fill="none" xmlns="http://www.w3.org/2000/svg">
<path d="M49.7197 0.150211C57.2397 0.150211 64.6797 1.73021 71.4397 4.96021C77.8997 7.97021 84.4397 12.8502 87.1497 20.4402C96.5497 47.2702 80.1597 71.2502 52.7197 71.8502H6.71973C6.71973 71.8502 19.0497 63.6602 3.85972 49.2302H32.4197C41.1397 49.3802 42.3397 56.9002 35.7997 63.7402C34.2197 65.3902 34.5197 68.6302 42.2597 68.4802C57.6697 69.4602 68.4197 46.8302 55.1097 45.7802C44.5097 44.8802 5.49971 54.0502 1.13971 28.4902C-3.57028 0.900211 29.1997 0.00021103 49.7197 0.150211ZM49.3497 40.6602C60.2497 39.6802 73.1797 18.5602 55.2897 6.08021C51.8297 3.60021 47.1697 3.60021 43.2597 5.33021C23.7197 14.2802 26.8697 42.8402 49.3497 40.6602Z" fill="url(#paint0_linear_357_196)"/>
<defs>
<linearGradient id="paint0_linear_357_196" x1="45.2597" y1="-0.349789" x2="45.2597" y2="69.4202" gradientUnits="userSpaceOnUse">
<stop stop-color="#FDF251"/>
<stop offset="0.49" stop-color="#EB8661"/>
<stop offset="1" stop-color="#EA40CB"/>
</linearGradient>
</defs>
</svg>
