<svg width="90" height="72" viewBox="0 0 90 72" fill="none" xmlns="http://www.w3.org/2000/svg">
<path d="M49.5801 0.150211C57.1001 0.150211 64.5401 1.73021 71.3001 4.96021C77.7601 7.97021 84.3001 12.8502 87.0101 20.4402C96.4101 47.2702 80.0201 71.2502 52.5801 71.8502H6.58005C6.58005 71.8502 18.9101 63.6602 3.72007 49.2302H32.28C41 49.3802 42.2 56.9002 35.66 63.7402C34.08 65.3902 34.3801 68.6302 42.1201 68.4802C57.5301 69.4602 68.28 46.8302 54.97 45.7802C44.37 44.8802 5.36007 54.0502 1.00007 28.4902C-3.70993 0.900211 29.0601 0.00021103 49.5801 0.150211ZM49.21 40.6602C60.11 39.6802 73.04 18.5602 55.15 6.08021C51.69 3.60021 47.0301 3.60021 43.1201 5.33021C23.5801 14.2802 26.73 42.8402 49.21 40.6602Z" fill="url(#paint0_linear_357_197)"/>
<defs>
<linearGradient id="paint0_linear_357_197" x1="45.1201" y1="-0.349789" x2="45.1201" y2="69.4202" gradientUnits="userSpaceOnUse">
<stop stop-color="#FDF251"/>
<stop offset="0.49" stop-color="#EB8661"/>
<stop offset="1" stop-color="#EA40CB"/>
</linearGradient>
</defs>
</svg>
