<svg width="85" height="72" viewBox="0 0 85 72" fill="none" xmlns="http://www.w3.org/2000/svg">
<path d="M32.2551 35.9935C30.7527 52.8803 44.6005 66.7456 53.9346 67.6482C77.3211 69.9591 32.5556 42.222 63.8697 42.222H82.6403C82.6403 42.222 68.7861 56.3946 83.9445 71.8667H39.0767C39.0767 71.8667 14.9869 72.3724 4.45087 52.7715C-2.97808 38.8037 0.0331926 21.3151 11.7776 10.6633C18.1005 4.93405 27.7351 0.107422 41.8898 0.107422H56.7477C62.1691 0.107422 66.5868 1.21486 70.199 3.02005C73.8112 4.83163 76.522 7.34097 78.7276 10.2536C80.5369 12.6669 81.8411 15.2787 82.8449 17.8904L83.1453 18.4921C83.1453 18.6906 83.2477 18.8954 83.3436 18.9914C86.2525 27.3324 80.0318 35.9743 71.1964 35.9743H32.2487L32.2551 35.9935ZM32.6579 31.6726C32.8561 31.6726 48.1168 32.4791 55.4434 25.9433C57.6491 23.7349 59.2602 20.8158 59.8612 17.7048C60.8649 12.8781 60.1617 8.46121 58.6592 6.15031C57.355 4.14028 55.8462 3.43613 52.5345 4.44115C48.6219 5.54858 43.2003 9.56864 36.5769 20.7198C35.2727 23.0307 34.269 25.3416 33.5657 27.6525C33.163 29.0608 32.8625 30.3667 32.6643 31.6726H32.6579Z" fill="url(#paint0_linear_357_170)"/>
<defs>
<linearGradient id="paint0_linear_357_170" x1="41.5125" y1="-28.0138" x2="42.5893" y2="57.9373" gradientUnits="userSpaceOnUse">
<stop stop-color="#FDF251"/>
<stop offset="0.49" stop-color="#EB8661"/>
<stop offset="1" stop-color="#EA40CB"/>
</linearGradient>
</defs>
</svg>
