<svg width="36" height="54" viewBox="0 0 36 54" fill="none" xmlns="http://www.w3.org/2000/svg">
<path d="M18.1234 53.4966C8.78545 53.4966 2.84314 48.5556 0.599609 40.4426L10.4226 37.6366C11.9385 42.3946 14.3033 44.1636 18.1234 44.1636C22.3679 44.1636 25.0359 41.5406 25.0359 37.1486V33.8546C25.0359 29.4016 22.1253 27.5106 19.0935 27.5106C16.3649 27.5106 14.182 28.6086 12.5449 30.4996L2.7825 28.6696L5.08666 0.975586H33.4643V10.2476H14.2427L13.2725 21.1056C15.516 19.6416 18.4266 18.7266 21.5796 18.7266C29.6442 18.7266 35.6471 23.9116 35.6471 33.3666V38.0026C35.6471 47.5186 28.9772 53.4966 18.1234 53.4966Z" fill="#FF6464"/>
</svg>
