<svg width="65" height="110" viewBox="0 0 65 110" fill="none" xmlns="http://www.w3.org/2000/svg">
<path d="M49.6993 109.829C39.7629 109.829 34.9976 104.882 34.9976 94.682V80.147C34.9976 69.947 39.7629 65 49.6993 65C59.6356 65 64.401 69.947 64.401 80.147V94.682C64.401 104.882 59.6356 109.829 49.6993 109.829ZM44.0214 95.447C44.0214 99.731 45.8464 101.771 49.6993 101.771C53.5521 101.771 55.3772 99.731 55.3772 95.447V79.382C55.3772 75.098 53.5521 73.058 49.6993 73.058C45.8464 73.058 44.0214 75.098 44.0214 79.382V95.447Z" fill="black"/>
<path d="M15.4961 109.829C6.52295 109.829 0.743652 104.831 0.743652 94.07V81.371C0.743652 70.457 5.9146 65 15.2426 65C22.6948 65 28.0179 69.08 29.7415 75.506L21.4274 77.852C20.4135 74.435 18.2336 72.701 15.1919 72.701C11.6939 72.701 9.76746 75.506 9.76746 79.433V81.422L9.56468 84.278C11.1869 82.391 13.8738 81.371 17.1183 81.32C25.0775 81.218 30.1471 86.216 30.1471 94.682V96.314C30.1471 104.729 24.5706 109.829 15.4961 109.829ZM9.76746 95.855C9.76746 99.68 12.0995 102.026 15.4454 102.026C19.0447 102.026 21.2754 99.68 21.2754 95.855V94.937C21.2754 91.01 19.1968 88.664 15.6988 88.664C12.7585 88.664 10.5279 90.245 9.76746 92.846V95.855Z" fill="black"/>
<path d="M49.598 44.829C41.8416 44.829 36.4679 41.208 34.7949 34.221L42.9569 31.926C44.1229 35.853 46.3535 37.026 49.598 37.026C53.1974 37.026 55.1745 34.782 55.1745 30.753V27.897L55.3773 25.143C53.7044 26.928 51.0175 27.948 47.8237 27.999C40.0673 28.05 34.7949 23.154 34.7949 15.045V13.413C34.7949 5.151 40.27 0 49.4459 0C58.5204 0 64.1983 5.151 64.1983 15.759V28.713C64.1983 39.168 59.0274 44.829 49.598 44.829ZM43.6666 14.637C43.6666 18.36 45.7452 20.655 49.2432 20.655C52.1835 20.655 54.4141 19.074 55.1745 16.473V13.974C55.1745 9.843 52.7411 7.701 49.4966 7.701C45.8973 7.701 43.6666 9.894 43.6666 13.719V14.637Z" fill="black"/>
<path d="M0.793945 44.013V36.261H12.4539V9.79197H3.37942V3.77397C7.99271 3.31497 10.9838 2.39697 13.4678 0.917969H21.8833V36.261H29.8425V44.013H0.793945Z" fill="black"/>
</svg>
