<svg width="90" height="72" viewBox="0 0 90 72" fill="none" xmlns="http://www.w3.org/2000/svg">
<path d="M35.5835 71.8732C18.1171 71.8732 9.18577 68.7558 8.07973 56.1963C7.27419 47.2536 0.753079 42.3245 0.753079 42.3245H29.3565C31.5621 42.3245 35.2766 42.3245 37.0859 43.6304C45.5186 49.5581 34.0747 63.9292 44.1121 64.6333C55.3514 65.4399 60.0696 37.6964 51.2405 33.8811C38.5947 28.3568 3.26563 49.4557 0.753079 23.9334C-1.85537 -2.29937 41.005 0.113943 41.005 0.113943H71.7181C60.1783 11.8733 75.6308 18.5051 75.6308 18.5051H44.0162C40.1994 18.5051 37.6932 14.7859 39.298 11.47C41.8041 6.24645 49.9363 4.33244 49.9363 4.33244H46.2218C43.1083 4.33244 40.0971 4.93417 37.3864 6.34247C24.0373 13.2752 27.95 24.836 35.0784 25.5402C41.8041 26.1419 48.8303 25.1369 52.4425 24.3367C56.2592 23.6326 59.9673 23.2293 63.7841 23.3317C103.934 24.2343 97.5085 71.8732 35.5771 71.8732H35.5835Z" fill="url(#paint0_linear_357_161)"/>
<defs>
<linearGradient id="paint0_linear_357_161" x1="44.176" y1="-16.8369" x2="45.2528" y2="69.1206" gradientUnits="userSpaceOnUse">
<stop stop-color="#FDF251"/>
<stop offset="0.49" stop-color="#EB8661"/>
<stop offset="1" stop-color="#EA40CB"/>
</linearGradient>
</defs>
</svg>
