<svg width="174" height="43" viewBox="0 0 174 43" fill="none" xmlns="http://www.w3.org/2000/svg">
<path d="M137.087 6.72039C136.948 5.96039 136.312 5.48039 135.338 5.48039C134.403 5.48039 133.708 5.92039 133.708 6.56039C133.708 7.04039 134.085 7.42039 135.059 7.64039L136.968 8.00039C138.996 8.44039 139.99 9.36039 139.99 10.8804C139.99 12.9604 138.141 14.3604 135.338 14.3604C132.475 14.3604 130.805 13.0804 130.566 11.0004H133.469C133.608 11.8404 134.264 12.2804 135.338 12.2804C136.372 12.2804 137.067 11.8604 137.087 11.1604C137.067 10.6204 136.63 10.2804 135.656 10.0804L133.906 9.72039C131.879 9.34039 130.845 8.28039 130.845 6.72039C130.845 4.68039 132.594 3.42039 135.298 3.40039C137.982 3.42039 139.612 4.68039 139.751 6.72039H137.087Z" fill="black"/>
<path d="M124.438 14.3604C121.178 14.3604 119.21 12.2604 119.19 8.92039C119.21 5.64039 121.218 3.42039 124.319 3.40039C127.063 3.42039 129.25 5.18039 129.25 8.80039V9.60039H122.053C122.053 11.2004 122.987 12.2004 124.478 12.2004C125.452 12.2004 126.148 11.7604 126.426 11.1604H129.17C128.753 13.1004 127.023 14.3604 124.438 14.3604ZM122.053 7.80039H126.546C126.526 6.50039 125.631 5.58039 124.359 5.56039C123.007 5.58039 122.093 6.58039 122.053 7.80039Z" fill="black"/>
<path d="M117.365 0V14.16H114.502V0H117.365Z" fill="black"/>
<path d="M112.497 3.56V5.72H110.509V10.92C110.509 11.74 110.926 11.96 111.503 11.96C111.801 11.98 112.298 11.94 112.656 11.92V14.2C112.338 14.24 111.821 14.3 111.145 14.32C109.038 14.3 107.626 13.36 107.646 11.28V5.72H106.175V3.56H107.646V1H110.509V3.56H112.497Z" fill="black"/>
<path d="M95.3677 11.2004C95.3677 8.82039 97.2563 8.06039 99.2643 7.92039L101.889 7.80039V6.96039C101.889 6.04039 101.272 5.54039 100.219 5.52039C99.2245 5.54039 98.6082 5.98039 98.4691 6.72039H95.7255C95.8846 4.86039 97.4949 3.42039 100.298 3.40039C102.584 3.42039 104.751 4.46039 104.751 7.00039V14.1604H102.048V12.6804H101.928C101.431 13.6804 100.437 14.3604 98.8667 14.3604C96.8587 14.3604 95.3677 13.3004 95.3677 11.2004ZM98.1112 11.1204C98.1112 11.9204 98.7673 12.3604 99.6619 12.3604C100.994 12.3604 101.908 11.4804 101.889 10.3604V9.60039C101.451 9.62039 100.219 9.68039 99.7414 9.72039C98.7474 9.82039 98.1112 10.3004 98.1112 11.1204Z" fill="black"/>
<path d="M89.2392 14.3604C85.9788 14.3604 84.0106 12.2604 83.9907 8.92039C84.0106 5.64039 86.0186 3.42039 89.1199 3.40039C91.8634 3.42039 94.0503 5.18039 94.0503 8.80039V9.60039H86.8535C86.8535 11.2004 87.7879 12.2004 89.279 12.2004C90.2531 12.2004 90.9489 11.7604 91.2273 11.1604H93.9708C93.5533 13.1004 91.8237 14.3604 89.2392 14.3604ZM86.8535 7.80039H91.3465C91.3267 6.50039 90.432 5.58039 89.1597 5.56039C87.8078 5.58039 86.8933 6.58039 86.8535 7.80039Z" fill="black"/>
<path d="M71.8691 14.16V0H77.4755C80.557 0.0199997 82.1077 1.52 82.1275 3.64C82.1077 5.32 81.0341 6.36 79.5828 6.68V6.84C81.1733 6.9 82.6643 8.16 82.6842 10.28C82.6643 12.5 80.9943 14.16 77.8333 14.16H71.8691ZM74.7717 11.76H77.2369C78.9268 11.74 79.6623 11.04 79.6623 9.96C79.6623 8.78 78.7478 7.94 77.3164 7.96H74.7717V11.76ZM74.7717 5.96H77.0381C78.2508 5.94 79.1653 5.26 79.1852 4.12C79.1653 3.1 78.4099 2.4 77.0779 2.4H74.7717V5.96Z" fill="black"/>
<path d="M60.603 14.3604C57.3425 14.3604 55.3744 12.2604 55.3545 8.92039C55.3744 5.64039 57.3823 3.42039 60.4837 3.40039C63.2272 3.42039 65.4141 5.18039 65.4141 8.80039V9.60039H58.2173C58.2173 11.2004 59.1517 12.2004 60.6427 12.2004C61.6169 12.2004 62.3127 11.7604 62.591 11.1604H65.3346C64.9171 13.1004 63.1875 14.3604 60.603 14.3604ZM58.2173 7.80039H62.7103C62.6904 6.50039 61.7958 5.58039 60.5234 5.56039C59.1716 5.58039 58.2571 6.58039 58.2173 7.80039Z" fill="black"/>
<path d="M46.7344 8V14.16H43.8716V0H46.6549V5.4H46.8139C47.2712 4.18 48.3447 3.42 49.955 3.4C52.1419 3.42 53.5932 4.9 53.5733 7.4V14.16H50.7105V7.92C50.7304 6.6 50.0147 5.82 48.802 5.8C47.6091 5.82 46.7543 6.62 46.7344 8Z" fill="black"/>
<path d="M30.6392 2.44V0H42.1302V2.44H37.8359V14.16H34.9334V2.44H30.6392Z" fill="black"/>
<path d="M173.171 32.4797C173.151 35.9197 172.257 38.7597 170.388 41.2397H167.645C169.076 39.3997 170.169 35.7597 170.189 32.4797C170.169 29.1997 169.076 25.5597 167.645 23.7197H170.388C172.257 26.1997 173.151 29.0397 173.171 32.4797Z" fill="black"/>
<path d="M157.342 38.16L163.267 26.52V26.44H156.388V24H166.329V26.48L160.364 38.16H157.342Z" fill="black"/>
<path d="M149.517 38.36C146.595 38.34 143.832 36.6 143.832 31.4C143.832 26.66 146.098 23.82 149.597 23.84C152.44 23.82 154.388 25.62 154.686 27.96H151.784C151.565 26.96 150.75 26.34 149.597 26.36C147.708 26.34 146.694 28.08 146.694 30.84H146.814C147.47 29.6 148.861 28.86 150.432 28.84C152.937 28.86 154.826 30.78 154.806 33.44C154.826 36.3 152.678 38.36 149.517 38.36ZM146.973 33.52C146.993 34.9 148.046 36.04 149.478 36.04C150.929 36.04 151.983 34.94 151.983 33.52C151.983 32.1 150.949 31 149.517 31C148.086 31 146.993 32.14 146.973 33.52Z" fill="black"/>
<path d="M136.444 23.84C139.347 23.84 142.11 25.58 142.09 30.72C142.11 35.52 139.844 38.36 136.325 38.36C133.482 38.36 131.554 36.56 131.275 34.2H134.138C134.377 35.22 135.192 35.84 136.325 35.84C138.233 35.84 139.247 34.1 139.267 31.28H139.108C138.472 32.54 137.08 33.28 135.53 33.28C133.005 33.28 131.136 31.36 131.116 28.72C131.116 25.88 133.263 23.82 136.444 23.84ZM133.979 28.64C133.959 30.04 134.993 31.14 136.444 31.12C137.856 31.14 138.949 29.98 138.949 28.64C138.949 27.28 137.895 26.14 136.444 26.12C135.013 26.14 133.939 27.24 133.979 28.64Z" fill="black"/>
<path d="M128.059 24V38.16H125.156V26.8H125.037L121.816 28.84V26.24L125.315 24H128.059Z" fill="black"/>
<path d="M114.905 32.4797C114.925 29.0397 115.819 26.1997 117.688 23.7197H120.432C119 25.5597 117.907 29.1997 117.887 32.4797C117.907 35.7597 119 39.3997 120.432 41.2397H117.688C115.819 38.7597 114.925 35.9197 114.905 32.4797Z" fill="black"/>
<path d="M105.992 38.32C103.587 38.34 101.698 36.42 101.698 32.88C101.698 29.24 103.666 27.42 105.992 27.4C107.762 27.42 108.597 28.48 108.975 29.32H109.094V24H111.957V38.16H109.134V36.48H108.975C108.577 37.34 107.702 38.34 105.992 38.32ZM104.641 32.84C104.641 34.72 105.436 36.02 106.907 36.04C108.318 36.02 109.134 34.76 109.134 32.84C109.134 30.94 108.338 29.72 106.907 29.72C105.416 29.72 104.641 31 104.641 32.84Z" fill="black"/>
<path d="M90.5332 35.2004C90.5332 32.8204 92.4219 32.0604 94.4298 31.9204L97.054 31.8004V30.9604C97.054 30.0404 96.4378 29.5404 95.3841 29.5204C94.39 29.5404 93.7738 29.9804 93.6346 30.7204H90.8911C91.0501 28.8604 92.6604 27.4204 95.4636 27.4004C97.7499 27.4204 99.9169 28.4604 99.9169 31.0004V38.1604H97.2131V36.6804H97.0938C96.5968 37.6804 95.6028 38.3604 94.0322 38.3604C92.0243 38.3604 90.5332 37.3004 90.5332 35.2004ZM93.2767 35.1204C93.2767 35.9204 93.9328 36.3604 94.8274 36.3604C96.1594 36.3604 97.0739 35.4804 97.054 34.3604V33.6004C96.6167 33.6204 95.3841 33.6804 94.9069 33.7204C93.9129 33.8204 93.2767 34.3004 93.2767 35.1204Z" fill="black"/>
<path d="M84.0549 38.3604C80.8541 38.3604 78.8661 36.1604 78.8462 32.8804C78.8661 29.6204 80.8541 27.4204 84.0549 27.4004C87.2358 27.4204 89.204 29.6204 89.2239 32.8804C89.204 36.1604 87.2358 38.3604 84.0549 38.3604ZM81.7885 32.8804C81.7686 34.7404 82.544 36.1204 84.0549 36.1204C85.5261 36.1204 86.3014 34.7404 86.2815 32.8804C86.3014 31.0204 85.5261 29.6204 84.0549 29.6404C82.544 29.6204 81.7686 31.0204 81.7885 32.8804Z" fill="black"/>
<path d="M66.9766 38.16V24H72.4636C75.6843 24.02 77.5133 25.82 77.5133 28.64C77.5133 30.56 76.6385 31.96 75.0282 32.66L78.0302 38.16H74.7698L72.0859 33.12H69.8791V38.16H66.9766ZM69.8791 30.76H71.9467C73.6763 30.76 74.5113 30.04 74.4914 28.64C74.5113 27.2 73.6763 26.42 71.9467 26.44H69.8791V30.76Z" fill="black"/>
<path d="M52.8616 42.1196C52.2851 42.1396 51.7682 42.1196 51.3904 42.0796V39.8396C51.7682 39.8596 52.2056 39.8796 52.5435 39.8796C53.1399 39.8796 53.5972 39.8196 53.9352 38.9196L54.0942 38.4396L50.3169 27.5596H53.3387L55.5654 35.3596H55.6847L57.9113 27.5596H60.9331L56.8377 39.3196C56.2214 41.0396 55.0882 42.1396 52.8616 42.1196Z" fill="black"/>
<path d="M44.8383 38.3604C41.5779 38.3604 39.6097 36.2604 39.5898 32.9204C39.6097 29.6404 41.6177 27.4204 44.719 27.4004C47.4626 27.4204 49.6494 29.1804 49.6494 32.8004V33.6004H42.4527C42.4527 35.2004 43.387 36.2004 44.8781 36.2004C45.8522 36.2004 46.5481 35.7604 46.8264 35.1604H49.5699C49.1524 37.1004 47.4228 38.3604 44.8383 38.3604ZM42.4527 31.8004H46.9457C46.9258 30.5004 46.0312 29.5804 44.7588 29.5604C43.4069 29.5804 42.4924 30.5804 42.4527 31.8004Z" fill="black"/>
<path d="M27.9336 38.16V24H30.7964V29.32H30.8759C31.2735 28.48 32.1085 27.42 33.8978 27.4C36.2238 27.42 38.1721 29.24 38.1522 32.88C38.1721 36.42 36.3033 38.34 33.8978 38.32C32.1682 38.34 31.2934 37.34 30.8759 36.48H30.7566V38.16H27.9336ZM30.7169 32.84C30.7368 34.76 31.5519 36.02 32.9833 36.04C34.4346 36.02 35.2298 34.72 35.2497 32.84C35.2298 31 34.4544 29.72 32.9833 29.72C31.5519 29.72 30.7368 30.94 30.7169 32.84Z" fill="black"/>
<path d="M15.7607 38.16V24H18.6236V29.32H18.7031C19.1007 28.48 19.9357 27.42 21.7249 27.4C24.051 27.42 25.9993 29.24 25.9794 32.88C25.9993 36.42 24.1305 38.34 21.7249 38.32C19.9953 38.34 19.1206 37.34 18.7031 36.48H18.5838V38.16H15.7607ZM18.544 32.84C18.5639 34.76 19.379 36.02 20.8104 36.04C22.2617 36.02 23.0569 34.72 23.0768 32.84C23.0569 31 22.2816 29.72 20.8104 29.72C19.379 29.72 18.5639 30.94 18.544 32.84Z" fill="black"/>
<path d="M3.83694 38.16H0.695801L5.54667 24H9.32399L14.1749 38.16H11.0337L9.98005 34.92H4.89061L3.83694 38.16ZM5.62619 32.6H9.24446L7.49497 27.2H7.37569L5.62619 32.6Z" fill="black"/>
</svg>
