<svg width="64" height="110" viewBox="0 0 64 110" fill="none" xmlns="http://www.w3.org/2000/svg">
<path d="M49.0069 109.975C39.0706 109.975 34.3052 105.028 34.3052 94.8275V80.2925C34.3052 70.0925 39.0706 65.1455 49.0069 65.1455C58.9432 65.1455 63.7086 70.0925 63.7086 80.2925V94.8275C63.7086 105.028 58.9432 109.975 49.0069 109.975ZM43.329 95.5925C43.329 99.8765 45.154 101.917 49.0069 101.917C52.8597 101.917 54.6848 99.8765 54.6848 95.5925V79.5275C54.6848 75.2435 52.8597 73.2035 49.0069 73.2035C45.154 73.2035 43.329 75.2435 43.329 79.5275V95.5925Z" fill="black"/>
<path d="M0.101562 109.158V101.406H11.7615V74.9375H2.68704V68.9195C7.30033 68.4605 10.2914 67.5425 12.7755 66.0635H21.1909V101.406H29.1501V109.158H0.101562Z" fill="black"/>
<path d="M49.0069 44.9745C39.0706 44.9745 34.3052 40.0275 34.3052 29.8275V15.2925C34.3052 5.09251 39.0706 0.145508 49.0069 0.145508C58.9432 0.145508 63.7086 5.09251 63.7086 15.2925V29.8275C63.7086 40.0275 58.9432 44.9745 49.0069 44.9745ZM43.329 30.5925C43.329 34.8765 45.154 36.9165 49.0069 36.9165C52.8597 36.9165 54.6848 34.8765 54.6848 30.5925V14.5275C54.6848 10.2435 52.8597 8.20351 49.0069 8.20351C45.154 8.20351 43.329 10.2435 43.329 14.5275V30.5925Z" fill="black"/>
<path d="M0.709738 37.937C4.86677 33.143 9.53076 27.635 13.2315 23.045C17.2365 17.996 18.9094 15.242 18.9094 12.182C18.9094 9.73405 17.1858 7.94905 14.3975 7.94905C11.2037 7.94905 9.1252 10.397 8.26338 13.967L0 11.621C1.82504 4.94005 6.53973 0.248047 14.3975 0.248047C22.3567 0.248047 27.7305 5.09304 27.7305 11.417V12.539C27.7305 17.282 25.6519 21.107 20.3796 27.533C17.7434 30.746 14.4482 34.622 12.5218 36.917C14.1441 36.764 17.2872 36.407 18.5039 36.305H29.3527V44.159H0.709738V37.937Z" fill="black"/>
</svg>
