<svg width="36" height="53" viewBox="0 0 36 53" fill="none" xmlns="http://www.w3.org/2000/svg">
<path d="M1.66921 45.3466C6.64136 39.6126 12.2199 33.0246 16.6463 27.5346C21.4365 21.4956 23.4375 18.2016 23.4375 14.5416C23.4375 11.6136 21.3759 9.47858 18.0409 9.47858C14.2208 9.47858 11.7348 12.4066 10.704 16.6766L0.820312 13.8706C3.0032 5.87958 8.64234 0.267578 18.0409 0.267578C27.5607 0.267578 33.9881 6.06258 33.9881 13.6266V14.9686C33.9881 20.6416 31.5021 25.2166 25.1959 32.9026C22.0429 36.7456 18.1015 41.3816 15.7974 44.1266C17.7377 43.9436 21.4971 43.5166 22.9524 43.3946H35.9285V52.7886H1.66921V45.3466Z" fill="#FFDC64"/>
</svg>
