<svg width="242" height="43" viewBox="0 0 242 43" fill="none" xmlns="http://www.w3.org/2000/svg">
<path d="M241.688 33.5569C241.669 36.9969 240.774 39.8369 238.905 42.3169H236.162C237.593 40.4769 238.686 36.8369 238.706 33.5569C238.686 30.2769 237.593 26.6369 236.162 24.7969H238.905C240.774 27.2769 241.669 30.1169 241.688 33.5569Z" fill="black"/>
<path d="M224.663 39.2372V37.1172L229.673 32.4372C231.005 31.1772 231.701 30.3972 231.701 29.2772C231.701 28.0172 230.767 27.2372 229.475 27.2372C228.162 27.2372 227.288 28.0772 227.288 29.4372H224.504C224.504 26.6772 226.552 24.8972 229.514 24.9172C232.516 24.8972 234.524 26.6172 234.524 29.0772C234.524 30.6972 233.749 32.0172 230.826 34.6372L228.719 36.7172V36.8372H234.723V39.2372H224.663Z" fill="black"/>
<path d="M216.986 39.4371C213.468 39.4371 211.34 36.7971 211.34 32.1571C211.34 27.5371 213.487 24.8971 216.986 24.9171C220.485 24.8971 222.633 27.5571 222.633 32.1571C222.633 36.8171 220.505 39.4371 216.986 39.4371ZM214.322 32.1571C214.303 35.4371 215.356 36.9971 216.986 36.9971C218.617 36.9971 219.67 35.4371 219.65 32.1571C219.65 28.9371 218.617 27.3171 216.986 27.3171C215.376 27.3171 214.322 28.9371 214.322 32.1571Z" fill="black"/>
<path d="M203.862 39.4371C200.344 39.4371 198.216 36.7971 198.216 32.1571C198.216 27.5371 200.363 24.8971 203.862 24.9171C207.361 24.8971 209.508 27.5571 209.508 32.1571C209.508 36.8171 207.381 39.4371 203.862 39.4371ZM201.198 32.1571C201.179 35.4371 202.232 36.9971 203.862 36.9971C205.493 36.9971 206.546 35.4371 206.526 32.1571C206.526 28.9371 205.493 27.3171 203.862 27.3171C202.252 27.3171 201.198 28.9371 201.198 32.1571Z" fill="black"/>
<path d="M186.281 39.2372V37.1172L191.291 32.4372C192.623 31.1772 193.319 30.3972 193.319 29.2772C193.319 28.0172 192.384 27.2372 191.092 27.2372C189.78 27.2372 188.905 28.0772 188.905 29.4372H186.122C186.122 26.6772 188.17 24.8972 191.132 24.9172C194.134 24.8972 196.142 26.6172 196.142 29.0772C196.142 30.6972 195.367 32.0172 192.444 34.6372L190.337 36.7172V36.8372H196.341V39.2372H186.281Z" fill="black"/>
<path d="M179.171 33.5569C179.191 30.1169 180.085 27.2769 181.954 24.7969H184.698C183.266 26.6369 182.173 30.2769 182.153 33.5569C182.173 36.8369 183.266 40.4769 184.698 42.3169H181.954C180.085 39.8369 179.191 36.9969 179.171 33.5569Z" fill="black"/>
<path d="M159.752 39.2377L156.85 28.6377H159.752L161.422 35.7977H161.541L163.251 28.6377H166.114L167.863 35.7577H167.943L169.573 28.6377H172.476L169.613 39.2377H166.591L164.722 32.5177H164.603L162.774 39.2377H159.752Z" fill="black"/>
<path d="M150.942 39.4375C147.741 39.4375 145.753 37.2375 145.733 33.9575C145.753 30.6975 147.741 28.4975 150.942 28.4775C154.123 28.4975 156.091 30.6975 156.111 33.9575C156.091 37.2375 154.123 39.4375 150.942 39.4375ZM148.675 33.9575C148.655 35.8175 149.431 37.1975 150.942 37.1975C152.413 37.1975 153.188 35.8175 153.168 33.9575C153.188 32.0975 152.413 30.6975 150.942 30.7175C149.431 30.6975 148.655 32.0975 148.675 33.9575Z" fill="black"/>
<path d="M137.113 33.0771V39.2371H134.25V25.0771H137.033V30.4771H137.192C137.65 29.2571 138.723 28.4971 140.333 28.4771C142.52 28.4971 143.972 29.9771 143.952 32.4771V39.2371H141.089V32.9971C141.109 31.6771 140.393 30.8971 139.18 30.8771C137.988 30.8971 137.133 31.6971 137.113 33.0771Z" fill="black"/>
<path d="M129.401 29.1572C129.322 28.0172 128.427 27.3572 127.015 27.3572C125.524 27.3572 124.709 28.0372 124.709 28.9572C124.67 30.0172 125.723 30.4772 126.936 30.7572L128.208 31.0772C130.614 31.5972 132.403 32.8372 132.423 35.1972C132.403 37.7772 130.395 39.4372 126.976 39.4372C123.576 39.4372 121.409 37.8572 121.33 34.8372H124.153C124.272 36.2572 125.385 36.9572 126.936 36.9572C128.467 36.9572 129.461 36.2572 129.481 35.1972C129.461 34.2372 128.606 33.7772 127.055 33.3972L125.544 33.0372C123.159 32.4372 121.707 31.2572 121.687 29.1572C121.687 26.6172 123.954 24.8972 127.015 24.9172C130.137 24.8972 132.184 26.6372 132.224 29.1572H129.401Z" fill="black"/>
<path d="M99.6528 39.2375V28.6375H102.396V30.4775H102.516C102.953 29.2575 104.027 28.4975 105.458 28.4775C106.909 28.4975 107.983 29.2575 108.321 30.4775H108.44C108.858 29.2775 110.07 28.4975 111.621 28.4775C113.569 28.4975 114.921 29.7975 114.921 32.1175V39.2375H112.058V32.6775C112.058 31.4575 111.343 30.8775 110.388 30.8775C109.315 30.8775 108.679 31.6375 108.679 32.7575V39.2375H105.895V32.5975C105.895 31.5575 105.239 30.8775 104.265 30.8775C103.291 30.8775 102.536 31.6775 102.516 32.8775V39.2375H99.6528Z" fill="black"/>
<path d="M93.0483 39.4375C89.7879 39.4375 87.8197 37.3375 87.7998 33.9975C87.8197 30.7175 89.8276 28.4975 92.929 28.4775C95.6725 28.4975 97.8594 30.2575 97.8594 33.8775V34.6775H90.6626C90.6626 36.2775 91.597 37.2775 93.088 37.2775C94.0622 37.2775 94.758 36.8375 95.0363 36.2375H97.7799C97.3624 38.1775 95.6328 39.4375 93.0483 39.4375ZM90.6626 32.8775H95.1556C95.1357 31.5775 94.2411 30.6575 92.9688 30.6375C91.6169 30.6575 90.7024 31.6575 90.6626 32.8775Z" fill="black"/>
<path d="M79.2183 33.0775V39.2375H76.3555V28.6375H79.099V30.4775H79.2183C79.6954 29.2575 80.8286 28.4975 82.3992 28.4775C84.586 28.4975 86.0373 29.9975 86.0174 32.4775V39.2375H83.1546V32.9975C83.1546 31.6775 82.4588 30.8975 81.2461 30.8775C80.0533 30.8975 79.2382 31.6975 79.2183 33.0775Z" fill="black"/>
<path d="M71.2299 39.2369V28.6368H74.0927V39.2369H71.2299ZM71.0708 25.7569C71.0907 24.9569 71.7865 24.2968 72.6612 24.3168C73.5161 24.2968 74.2119 24.9569 74.2119 25.7569C74.2119 26.5769 73.5161 27.2369 72.6612 27.2369C71.7865 27.2369 71.0907 26.5769 71.0708 25.7569Z" fill="black"/>
<path d="M53.7373 39.2375V28.6375H56.4808V30.4775H56.6001C57.0375 29.2575 58.111 28.4975 59.5424 28.4775C60.9937 28.4975 62.0673 29.2575 62.4053 30.4775H62.5245C62.942 29.2775 64.1548 28.4975 65.7054 28.4775C67.6537 28.4975 69.0056 29.7975 69.0056 32.1175V39.2375H66.1428V32.6775C66.1428 31.4575 65.4271 30.8775 64.4728 30.8775C63.3993 30.8775 62.7631 31.6375 62.7631 32.7575V39.2375H59.9798V32.5975C59.9798 31.5575 59.3238 30.8775 58.3496 30.8775C57.3755 30.8775 56.62 31.6775 56.6001 32.8775V39.2375H53.7373Z" fill="black"/>
<path d="M42.1289 39.2371V25.0771H51.5523V27.5171H45.0315V30.9571H51.0752V33.3571H45.0315V36.7971H51.5921V39.2371H42.1289Z" fill="black"/>
<path d="M30.8632 39.4375C27.6028 39.4375 25.6346 37.3375 25.6147 33.9975C25.6346 30.7175 27.6426 28.4975 30.7439 28.4775C33.4875 28.4975 35.6743 30.2575 35.6743 33.8775V34.6775H28.4776C28.4776 36.2775 29.4119 37.2775 30.903 37.2775C31.8771 37.2775 32.573 36.8375 32.8513 36.2375H35.5948C35.1773 38.1775 33.4477 39.4375 30.8632 39.4375ZM28.4776 32.8775H32.9706C32.9507 31.5775 32.0561 30.6575 30.7837 30.6375C29.4318 30.6575 28.5173 31.6575 28.4776 32.8775Z" fill="black"/>
<path d="M16.9942 33.0771V39.2371H14.1313V25.0771H16.9146V30.4771H17.0737C17.5309 29.2571 18.6045 28.4971 20.2148 28.4771C22.4017 28.4971 23.853 29.9771 23.8331 32.4771V39.2371H20.9703V32.9971C20.9902 31.6771 20.2745 30.8971 19.0617 30.8771C17.8689 30.8971 17.014 31.6971 16.9942 33.0771Z" fill="black"/>
<path d="M0.898926 27.5171V25.0771H12.3899V27.5171H8.09571V39.2371H5.19314V27.5171H0.898926Z" fill="black"/>
<path d="M143.016 15.2375V4.63754H145.759V6.47754H145.878C146.316 5.25754 147.389 4.49754 148.821 4.47754C150.272 4.49754 151.346 5.25754 151.684 6.47754H151.803C152.22 5.27754 153.433 4.49754 154.984 4.47754C156.932 4.49754 158.284 5.79754 158.284 8.11754V15.2375H155.421V8.67754C155.421 7.45754 154.705 6.87754 153.751 6.87754C152.678 6.87754 152.041 7.63754 152.041 8.75754V15.2375H149.258V8.59754C149.258 7.55754 148.602 6.87754 147.628 6.87754C146.654 6.87754 145.898 7.67754 145.878 8.87754V15.2375H143.016Z" fill="black"/>
<path d="M136.411 15.4375C133.15 15.4375 131.182 13.3375 131.162 9.99754C131.182 6.71754 133.19 4.49754 136.291 4.47754C139.035 4.49754 141.222 6.25754 141.222 9.87754V10.6775H134.025C134.025 12.2775 134.959 13.2775 136.45 13.2775C137.425 13.2775 138.12 12.8375 138.399 12.2375H141.142C140.725 14.1775 138.995 15.4375 136.411 15.4375ZM134.025 8.87754H138.518C138.498 7.57754 137.603 6.65754 136.331 6.63754C134.979 6.65754 134.065 7.65754 134.025 8.87754Z" fill="black"/>
<path d="M122.581 9.07754V15.2375H119.718V4.63754H122.461V6.47754H122.581C123.058 5.25754 124.191 4.49754 125.761 4.47754C127.948 4.49754 129.4 5.99754 129.38 8.47754V15.2375H126.517V8.99754C126.517 7.67754 125.821 6.89754 124.608 6.87754C123.416 6.89754 122.6 7.69754 122.581 9.07754Z" fill="black"/>
<path d="M114.592 15.2368V4.63685H117.455V15.2368H114.592ZM114.433 1.75685C114.453 0.956849 115.149 0.296849 116.024 0.316849C116.878 0.296849 117.574 0.956849 117.574 1.75685C117.574 2.57685 116.878 3.23685 116.024 3.23685C115.149 3.23685 114.453 2.57685 114.433 1.75685Z" fill="black"/>
<path d="M97.0996 15.2375V4.63754H99.8431V6.47754H99.9624C100.4 5.25754 101.473 4.49754 102.905 4.47754C104.356 4.49754 105.43 5.25754 105.768 6.47754H105.887C106.304 5.27754 107.517 4.49754 109.068 4.47754C111.016 4.49754 112.368 5.79754 112.368 8.11754V15.2375H109.505V8.67754C109.505 7.45754 108.789 6.87754 107.835 6.87754C106.762 6.87754 106.125 7.63754 106.125 8.75754V15.2375H103.342V8.59754C103.342 7.55754 102.686 6.87754 101.712 6.87754C100.738 6.87754 99.9823 7.67754 99.9624 8.87754V15.2375H97.0996Z" fill="black"/>
<path d="M85.4917 15.2371V1.07715H94.9151V3.51715H88.3943V6.95715H94.438V9.35715H88.3943V12.7971H94.9549V15.2371H85.4917Z" fill="black"/>
</svg>
