<svg width="65" height="111" viewBox="0 0 65 111" fill="none" xmlns="http://www.w3.org/2000/svg">
<path d="M49.6998 110.658C39.7634 110.658 34.998 105.711 34.998 95.5111V80.9761C34.998 70.7761 39.7634 65.8291 49.6998 65.8291C59.6361 65.8291 64.4015 70.7761 64.4015 80.9761V95.5111C64.4015 105.711 59.6361 110.658 49.6998 110.658ZM44.0219 96.2761C44.0219 100.56 45.8469 102.6 49.6998 102.6C53.5526 102.6 55.3777 100.56 55.3777 96.2761V80.2111C55.3777 75.9271 53.5526 73.8871 49.6998 73.8871C45.8469 73.8871 44.0219 75.9271 44.0219 80.2111V96.2761Z" fill="black"/>
<path d="M6.21917 109.842L19.4 74.5499H1.55518V66.7979H28.8294V73.6319L15.9527 109.842H6.21917Z" fill="black"/>
<path d="M49.5985 45.6581C41.8421 45.6581 36.4684 42.0371 34.7954 35.0501L42.9574 32.7551C44.1234 36.6821 46.354 37.8551 49.5985 37.8551C53.1979 37.8551 55.175 35.6111 55.175 31.5821V28.7261L55.3778 25.9721C53.7049 27.7571 51.018 28.7771 47.8242 28.8281C40.0677 28.8791 34.7954 23.9831 34.7954 15.8741V14.2421C34.7954 5.9801 40.2705 0.829102 49.4464 0.829102C58.5209 0.829102 64.1988 5.9801 64.1988 16.5881V29.5421C64.1988 39.9971 59.0279 45.6581 49.5985 45.6581ZM43.6671 15.4661C43.6671 19.1891 45.7457 21.4841 49.2436 21.4841C52.184 21.4841 54.4146 19.9031 55.175 17.3021V14.8031C55.175 10.6721 52.7416 8.5301 49.4971 8.5301C45.8977 8.5301 43.6671 10.7231 43.6671 14.5481V15.4661Z" fill="black"/>
<path d="M0.794434 44.8421V37.0901H12.4544V10.6211H3.37991V4.60307C7.9932 4.14407 10.9842 3.22607 13.4683 1.74707H21.8838V37.0901H29.843V44.8421H0.794434Z" fill="black"/>
</svg>
