<svg width="151" height="42" viewBox="0 0 151 42" fill="none" xmlns="http://www.w3.org/2000/svg">
<path d="M150.997 32.7854C150.977 36.2254 150.082 39.0654 148.213 41.5454H145.47C146.901 39.7054 147.995 36.0654 148.014 32.7854C147.995 29.5054 146.901 25.8654 145.47 24.0254H148.213C150.082 26.5054 150.977 29.3454 150.997 32.7854Z" fill="black"/>
<path d="M135.168 38.4657L141.093 26.8257V26.7457H134.214V24.3057H144.154V26.7857L138.19 38.4657H135.168Z" fill="black"/>
<path d="M131.396 24.3057V38.4657H128.493V27.1057H128.374L125.153 29.1457V26.5457L128.652 24.3057H131.396Z" fill="black"/>
<path d="M117.675 38.6656C114.156 38.6656 112.029 36.0256 112.029 31.3856C112.029 26.7656 114.176 24.1256 117.675 24.1456C121.174 24.1256 123.321 26.7856 123.321 31.3856C123.321 36.0456 121.194 38.6656 117.675 38.6656ZM115.011 31.3856C114.991 34.6656 116.045 36.2256 117.675 36.2256C119.305 36.2256 120.359 34.6656 120.339 31.3856C120.339 28.1656 119.305 26.5456 117.675 26.5456C116.065 26.5456 115.011 28.1656 115.011 31.3856Z" fill="black"/>
<path d="M100.094 38.4657V36.3457L105.104 31.6657C106.436 30.4057 107.131 29.6257 107.131 28.5057C107.131 27.2457 106.197 26.4657 104.905 26.4657C103.593 26.4657 102.718 27.3057 102.718 28.6657H99.9346C99.9346 25.9057 101.982 24.1257 104.944 24.1457C107.946 24.1257 109.954 25.8457 109.954 28.3057C109.954 29.9257 109.179 31.2457 106.257 33.8657L104.149 35.9457V36.0657H110.153V38.4657H100.094Z" fill="black"/>
<path d="M92.9829 32.7854C93.0028 29.3454 93.8974 26.5054 95.7662 24.0254H98.5097C97.0783 25.8654 95.9849 29.5054 95.965 32.7854C95.9849 36.0654 97.0783 39.7054 98.5097 41.5454H95.7662C93.8974 39.0654 93.0028 36.2254 92.9829 32.7854Z" fill="black"/>
<path d="M89.4907 32.7854C89.4708 36.2254 88.5762 39.0654 86.7074 41.5454H83.9639C85.3953 39.7054 86.4887 36.0654 86.5086 32.7854C86.4887 29.5054 85.3953 25.8654 83.9639 24.0254H86.7074C88.5762 26.5054 89.4708 29.3454 89.4907 32.7854Z" fill="black"/>
<path d="M77.9956 38.6661C74.7351 38.6661 72.767 36.5661 72.7471 33.2261C72.767 29.9461 74.7749 27.7261 77.8763 27.7061C80.6198 27.7261 82.8067 29.4861 82.8067 33.1061V33.9061H75.6099C75.6099 35.5061 76.5443 36.5061 78.0353 36.5061C79.0095 36.5061 79.7053 36.0661 79.9836 35.4661H82.7271C82.3096 37.4061 80.58 38.6661 77.9956 38.6661ZM75.6099 32.1061H80.1029C80.083 30.8061 79.1884 29.8861 77.916 29.8661C76.5641 29.8861 75.6496 30.8861 75.6099 32.1061Z" fill="black"/>
<path d="M64.908 38.6257C62.5024 38.6457 60.6138 36.7257 60.6138 33.1857C60.6138 29.5457 62.582 27.7257 64.908 27.7057C66.6774 27.7257 67.5123 28.7857 67.8901 29.6257H68.0094V24.3057H70.8722V38.4657H68.0491V36.7857H67.8901C67.4925 37.6457 66.6177 38.6457 64.908 38.6257ZM63.5561 33.1457C63.5561 35.0257 64.3513 36.3257 65.8225 36.3457C67.234 36.3257 68.0491 35.0657 68.0491 33.1457C68.0491 31.2457 67.2539 30.0257 65.8225 30.0257C64.3314 30.0257 63.5561 31.3057 63.5561 33.1457Z" fill="black"/>
<path d="M55.8861 38.4654V27.8654H58.7489V38.4654H55.8861ZM55.7271 24.9854C55.7469 24.1854 56.4427 23.5254 57.3175 23.5454C58.1724 23.5254 58.8682 24.1854 58.8682 24.9854C58.8682 25.8054 58.1724 26.4654 57.3175 26.4654C56.4427 26.4654 55.7469 25.8054 55.7271 24.9854Z" fill="black"/>
<path d="M54.5039 27.8662L50.8061 38.4662H47.5855L43.8877 27.8662H46.9493L49.1362 35.4662H49.2555L51.4821 27.8662H54.5039Z" fill="black"/>
<path d="M39.5975 38.4654V27.8654H42.4603V38.4654H39.5975ZM39.4385 24.9854C39.4584 24.1854 40.1542 23.5254 41.0289 23.5454C41.8838 23.5254 42.5796 24.1854 42.5796 24.9854C42.5796 25.8054 41.8838 26.4654 41.0289 26.4654C40.1542 26.4654 39.4584 25.8054 39.4385 24.9854Z" fill="black"/>
<path d="M30.6867 38.4657H25.7563V24.3057H30.7663C34.981 24.3257 37.5853 26.9657 37.5654 31.3857C37.5853 35.8057 34.9809 38.4657 30.6867 38.4657ZM28.6589 35.9457H30.5675C33.2513 35.9457 34.6629 34.5457 34.6629 31.3857C34.6629 28.2257 33.2513 26.8457 30.6072 26.8257H28.6589V35.9457Z" fill="black"/>
<path d="M18.5664 32.7854C18.5863 29.3454 19.4809 26.5054 21.3497 24.0254H24.0932C22.6618 25.8654 21.5684 29.5054 21.5485 32.7854C21.5684 36.0654 22.6618 39.7054 24.0932 41.5454H21.3497C19.4809 39.0654 18.5863 36.2254 18.5664 32.7854Z" fill="black"/>
<path d="M10.5195 31.6657V33.9857H0.937012V31.6657H10.5195ZM4.07815 36.6257C4.07815 35.7457 4.81373 35.0057 5.74812 34.9857C6.62287 35.0057 7.35845 35.7457 7.33857 36.6257C7.35845 37.5457 6.62287 38.2857 5.74812 38.3057C4.81373 38.2857 4.07815 37.5457 4.07815 36.6257ZM4.07815 28.9857C4.07815 28.0657 4.81373 27.3457 5.74812 27.3457C6.62287 27.3457 7.35845 28.0657 7.33857 28.9857C7.35845 29.8857 6.62287 30.6257 5.74812 30.6257C4.81373 30.6257 4.07815 29.8857 4.07815 28.9857Z" fill="black"/>
<path d="M121.147 8.30606V14.4661H118.285V3.86606H121.028V5.70606H121.147C121.625 4.48606 122.758 3.72606 124.328 3.70605C126.515 3.72606 127.967 5.22606 127.947 7.70606V14.4661H125.084V8.22606C125.084 6.90606 124.388 6.12605 123.175 6.10606C121.982 6.12605 121.167 6.92606 121.147 8.30606Z" fill="black"/>
<path d="M106.722 11.5061C106.722 9.12606 108.61 8.36606 110.618 8.22606L113.243 8.10606V7.26606C113.243 6.34606 112.626 5.84606 111.573 5.82606C110.579 5.84606 109.962 6.28606 109.823 7.02606H107.08C107.239 5.16605 108.849 3.72606 111.652 3.70605C113.938 3.72606 116.105 4.76606 116.105 7.30606V14.4661H113.402V12.9861H113.282C112.785 13.9861 111.791 14.6661 110.221 14.6661C108.213 14.6661 106.722 13.6061 106.722 11.5061ZM109.465 11.4261C109.465 12.2261 110.121 12.6661 111.016 12.6661C112.348 12.6661 113.262 11.7861 113.243 10.6661V9.90606C112.805 9.92606 111.573 9.98606 111.095 10.0261C110.101 10.1261 109.465 10.6061 109.465 11.4261Z" fill="black"/>
<path d="M99.7437 14.4661V3.86606H102.527V5.70606H102.646C103.024 4.38606 103.998 3.70605 105.191 3.70605C105.489 3.70605 105.847 3.74606 106.105 3.78606V6.38606C105.847 6.28606 105.29 6.22606 104.873 6.22606C103.581 6.22606 102.626 7.12606 102.606 8.42606V14.4661H99.7437Z" fill="black"/>
<path d="M93.1391 14.6661C89.8787 14.6661 87.9105 12.5661 87.8906 9.22606C87.9105 5.94605 89.9185 3.72606 93.0198 3.70605C95.7634 3.72606 97.9502 5.48605 97.9502 9.10606V9.90606H90.7534C90.7534 11.5061 91.6878 12.5061 93.1789 12.5061C94.153 12.5061 94.8488 12.0661 95.1272 11.4661H97.8707C97.4532 13.4061 95.7236 14.6661 93.1391 14.6661ZM90.7534 8.10606H95.2465C95.2266 6.80606 94.3319 5.88605 93.0596 5.86606C91.7077 5.88605 90.7932 6.88606 90.7534 8.10606Z" fill="black"/>
<path d="M81.7231 14.6661C78.4627 14.6661 76.4945 12.5661 76.4746 9.22606C76.4945 5.94605 78.5024 3.72606 81.6038 3.70605C84.3473 3.72606 86.5342 5.48605 86.5342 9.10606V9.90606H79.3374C79.3374 11.5061 80.2718 12.5061 81.7628 12.5061C82.737 12.5061 83.4328 12.0661 83.7112 11.4661H86.4547C86.0372 13.4061 84.3076 14.6661 81.7231 14.6661ZM79.3374 8.10606H83.8304C83.8106 6.80606 82.9159 5.88605 81.6436 5.86606C80.2917 5.88605 79.3772 6.88606 79.3374 8.10606Z" fill="black"/>
<path d="M67.854 8.30566V14.4657H64.9912V0.305664H67.7745V5.70566H67.9335C68.3908 4.48566 69.4643 3.72566 71.0747 3.70566C73.2615 3.72566 74.7128 5.20566 74.6929 7.70566V14.4657H71.8301V8.22566C71.85 6.90566 71.1343 6.12566 69.9216 6.10566C68.7288 6.12566 67.8739 6.92566 67.854 8.30566Z" fill="black"/>
<path d="M60.1428 4.38568C60.0633 3.24568 59.1687 2.58568 57.7571 2.58568C56.2661 2.58568 55.451 3.26568 55.451 4.18568C55.4112 5.24568 56.4649 5.70568 57.6776 5.98568L58.95 6.30568C61.3555 6.82568 63.1448 8.06568 63.1647 10.4257C63.1448 13.0057 61.1368 14.6657 57.7174 14.6657C54.3178 14.6657 52.1508 13.0857 52.0713 10.0657H54.8943C55.0136 11.4857 56.1269 12.1857 57.6776 12.1857C59.2084 12.1857 60.2025 11.4857 60.2223 10.4257C60.2025 9.46568 59.3476 9.00568 57.7969 8.62568L56.286 8.26568C53.9003 7.66568 52.449 6.48568 52.4291 4.38568C52.4291 1.84568 54.6955 0.125681 57.7571 0.14568C60.8784 0.125681 62.9261 1.86568 62.9659 4.38568H60.1428Z" fill="black"/>
<path d="M39.6106 14.6257C37.2051 14.6457 35.3164 12.7257 35.3164 9.18566C35.3164 5.54566 37.2846 3.72566 39.6106 3.70566C41.38 3.72566 42.215 4.78566 42.5927 5.62566H42.712V0.305664H45.5748V14.4657H42.7518V12.7857H42.5927C42.1951 13.6457 41.3204 14.6457 39.6106 14.6257ZM38.2587 9.14566C38.2587 11.0257 39.054 12.3257 40.5251 12.3457C41.9366 12.3257 42.7518 11.0657 42.7518 9.14566C42.7518 7.24566 41.9565 6.02566 40.5251 6.02566C39.0341 6.02566 38.2587 7.30566 38.2587 9.14566Z" fill="black"/>
<path d="M24.106 14.4657V0.305664H33.5294V2.74566H27.0085V6.18566H33.0522V8.58566H27.0085V12.0257H33.5691V14.4657H24.106Z" fill="black"/>
</svg>
