<svg width="87" height="96" viewBox="0 0 87 96" fill="none" xmlns="http://www.w3.org/2000/svg">
<path d="M86.9295 36.6976C86.9295 49.3595 81.8085 57.8029 75.4855 62.828C52.3995 81.2191 36.7424 66.7456 31.4233 60.818C31.4233 60.818 31.922 65.3373 43.4682 76.1941C48.3846 80.8158 48.1864 85.9433 46.8822 89.7585C45.6802 93.4777 42.2663 95.9871 38.3472 95.9871H0.00683594C0.00683594 95.9871 11.3485 84.2278 5.62652 71.8667C0.00686094 59.5057 -1.80245 44.3281 5.12783 30.6611C14.7625 11.4634 0.00683594 0.107422 0.00683594 0.107422H57.2201C88.5342 0.107422 86.9295 36.1855 86.9295 36.6912V36.6976ZM36.0392 4.83803C24.8958 2.22628 26.3023 9.56224 30.3172 18.2041C35.1377 28.856 28.8149 34.1819 27.4084 41.6203C26.8074 44.6353 27.306 47.5479 28.0093 49.8588C29.3135 54.583 33.5267 58.0014 38.3472 58.0974C57.4183 58.6031 56.114 9.55584 36.0392 4.83163V4.83803Z" fill="url(#paint0_linear_357_169)"/>
<defs>
<linearGradient id="paint0_linear_357_169" x1="42.3174" y1="-26.9127" x2="43.3942" y2="59.0448" gradientUnits="userSpaceOnUse">
<stop stop-color="#FDF251"/>
<stop offset="0.49" stop-color="#EB8661"/>
<stop offset="1" stop-color="#EA40CB"/>
</linearGradient>
</defs>
</svg>
