<svg width="127" height="96" viewBox="0 0 127 96" fill="none" xmlns="http://www.w3.org/2000/svg">
<path d="M113.013 64.3146C113.013 76.1763 105.987 87.129 95.0484 91.6484C86.8203 95.1692 73.8676 95.8669 71.6619 95.8669H62.1296C54.2979 95.8669 46.5748 94.4586 39.3441 91.546C38.9413 91.3475 38.4426 91.2451 38.0398 91.0403C32.3179 88.5309 26.8964 84.6069 23.8852 79.0825C20.9762 74.0574 19.3715 67.8289 21.8777 62.503C24.0833 57.7788 20.273 49.7387 7.82533 47.9335H52.6932C57.7119 47.9335 62.3278 51.0509 63.9325 55.7752C65.1344 59.3919 64.738 64.2186 59.617 69.7429C47.4699 82.6097 51.6894 92.5574 66.3427 90.9507C69.1558 90.7522 73.7717 88.3389 76.8788 82.8081C80.2928 76.6756 82.1979 68.2386 78.688 60.3969C76.8788 56.3769 73.6693 52.4592 68.4525 49.1433C51.4912 38.4915 51.3889 19.0953 45.1683 9.24363C44.1646 7.13117 36.3328 -0.102368 32.1197 5.32599C28.0024 10.5495 42.9626 11.5545 42.3553 20.9005C42.253 26.5273 38.5385 30.1441 34.1272 30.1441H0.805555C0.805555 30.1441 12.7481 20.7981 0 -0.00634766H116.53C116.53 -0.00634766 112.815 12.5531 126.765 30.1441H100.265C93.6419 30.1441 87.2167 26.2264 86.2129 19.5946C85.4074 13.763 87.8176 9.34605 87.8176 9.24363C89.6269 4.32098 79.2891 4.51942 79.2891 4.51942C79.2891 4.51942 50.2829 4.01371 64.738 19.0889C70.1595 24.7157 78.7904 28.8382 87.2231 33.3576C100.272 40.3927 113.02 48.3304 113.02 64.3146H113.013Z" fill="url(#paint0_linear_357_167)"/>
<defs>
<linearGradient id="paint0_linear_357_167" x1="63.1909" y1="-0.428838" x2="64.2612" y2="85.5223" gradientUnits="userSpaceOnUse">
<stop stop-color="#FDF251"/>
<stop offset="0.49" stop-color="#EB8661"/>
<stop offset="1" stop-color="#EA40CB"/>
</linearGradient>
</defs>
</svg>
