<svg width="112" height="96" viewBox="0 0 112 96" fill="none" xmlns="http://www.w3.org/2000/svg">
<path d="M102.58 8.03357C99.8693 11.9512 98.7633 17.5844 102.58 25.7205C103.181 27.1288 103.987 28.7356 104.99 30.3423H69.6612C66.3495 30.3423 63.6388 27.929 63.236 24.7155C62.635 18.9863 64.0415 10.0436 76.1823 3.5078C76.1823 3.5078 61.1262 8.43045 50.7883 22.9039C20.5739 65.313 54.3046 92.7492 66.2472 92.7492C78.1898 92.7492 78.0939 82.5967 71.6687 70.4405C70.9654 69.0322 70.2622 67.4254 69.2584 65.8187H103.488C107.202 65.8187 110.111 68.8337 109.913 72.3545C109.715 78.8903 107.707 88.5371 98.0664 92.7556C97.9641 92.7556 97.2609 93.1589 95.8607 93.7607C92.2486 95.2714 88.3359 95.9691 84.3209 95.9691H43.4681C19.6724 95.9691 0.000397251 78.583 0.000397251 56.876C-0.101895 26.828 19.5701 12.6554 36.736 5.92112C46.8757 2.00348 57.7122 0.191895 68.7534 0.191895H111.313C111.313 0.191895 106.998 1.70262 102.58 8.03357Z" fill="url(#paint0_linear_357_159)"/>
<defs>
<linearGradient id="paint0_linear_357_159" x1="55.4171" y1="9.56349" x2="56.4939" y2="95.521" gradientUnits="userSpaceOnUse">
<stop stop-color="#FDF251"/>
<stop offset="0.49" stop-color="#EB8661"/>
<stop offset="1" stop-color="#EA40CB"/>
</linearGradient>
</defs>
</svg>
