<svg width="92" height="72" viewBox="0 0 92 72" fill="none" xmlns="http://www.w3.org/2000/svg">
<path d="M76.8797 23.4499C70.6397 30.3699 56.8897 35.1799 53.5797 37.3599C41.3997 45.1799 36.2897 65.6199 53.3497 71.8599H0.429688C15.7597 60.5099 -12.7203 45.5499 43.6497 23.7499C47.5597 22.2499 54.6997 19.0099 55.3797 13.9799C56.6597 3.9799 41.7797 3.3799 39.8997 3.3099C34.3397 3.0099 29.8297 5.1899 30.9597 7.8899C31.5597 9.3199 35.9997 9.9199 36.6697 14.8799C37.1197 19.0099 32.6897 22.7699 30.0597 22.7699H5.32969C19.7597 8.2599 3.22968 0.149902 3.22968 0.149902H91.0997C82.2297 4.2799 88.2397 10.5999 76.8897 23.4499H76.8797Z" fill="url(#paint0_linear_357_192)"/>
<defs>
<linearGradient id="paint0_linear_357_192" x1="45.7597" y1="-0.350098" x2="45.7597" y2="69.4199" gradientUnits="userSpaceOnUse">
<stop stop-color="#FDF251"/>
<stop offset="0.49" stop-color="#EB8661"/>
<stop offset="1" stop-color="#EA40CB"/>
</linearGradient>
</defs>
</svg>
