<svg width="65" height="111" viewBox="0 0 65 111" fill="none" xmlns="http://www.w3.org/2000/svg">
<path d="M49.6993 110.145C39.7629 110.145 34.9976 105.198 34.9976 94.9984V80.4634C34.9976 70.2634 39.7629 65.3164 49.6993 65.3164C59.6356 65.3164 64.401 70.2634 64.401 80.4634V94.9984C64.401 105.198 59.6356 110.145 49.6993 110.145ZM44.0214 95.7634C44.0214 100.047 45.8464 102.087 49.6993 102.087C53.5521 102.087 55.3772 100.047 55.3772 95.7634V79.6984C55.3772 75.4144 53.5521 73.3744 49.6993 73.3744C45.8464 73.3744 44.0214 75.4144 44.0214 79.6984V95.7634Z" fill="black"/>
<path d="M15.2422 110.145C5.30591 110.145 0.540527 105.198 0.540527 94.9984V80.4634C0.540527 70.2634 5.30591 65.3164 15.2422 65.3164C25.1786 65.3164 29.944 70.2634 29.944 80.4634V94.9984C29.944 105.198 25.1786 110.145 15.2422 110.145ZM9.56434 95.7634C9.56434 100.047 11.3894 102.087 15.2422 102.087C19.0951 102.087 20.9201 100.047 20.9201 95.7634V79.6984C20.9201 75.4144 19.0951 73.3744 15.2422 73.3744C11.3894 73.3744 9.56434 75.4144 9.56434 79.6984V95.7634Z" fill="black"/>
<path d="M49.6993 45.1454C39.7629 45.1454 34.9976 40.1984 34.9976 29.9984V15.4634C34.9976 5.26341 39.7629 0.316406 49.6993 0.316406C59.6356 0.316406 64.401 5.26341 64.401 15.4634V29.9984C64.401 40.1984 59.6356 45.1454 49.6993 45.1454ZM44.0214 30.7634C44.0214 35.0474 45.8464 37.0874 49.6993 37.0874C53.5521 37.0874 55.3772 35.0474 55.3772 30.7634V14.6984C55.3772 10.4144 53.5521 8.37441 49.6993 8.37441C45.8464 8.37441 44.0214 10.4144 44.0214 14.6984V30.7634Z" fill="black"/>
<path d="M1.40212 38.1079C5.55916 33.3139 10.2231 27.8059 13.9239 23.2159C17.9289 18.1669 19.6018 15.4129 19.6018 12.3529C19.6018 9.90495 17.8782 8.11994 15.0899 8.11994C11.8961 8.11994 9.81758 10.5679 8.95576 14.1379L0.692383 11.7919C2.51742 5.11095 7.23211 0.418945 15.0899 0.418945C23.0491 0.418945 28.4228 5.26394 28.4228 11.5879V12.7099C28.4228 17.4529 26.3443 21.2779 21.072 27.7039C18.4358 30.9169 15.1406 34.7929 13.2142 37.0879C14.8364 36.9349 17.9796 36.5779 19.1963 36.4759H30.0451V44.3299H1.40212V38.1079Z" fill="black"/>
</svg>
