<svg width="90" height="96" viewBox="0 0 90 96" fill="none" xmlns="http://www.w3.org/2000/svg">
<path d="M89.4046 75.4721V75.5745C89.0018 84.2164 82.8771 95.8733 52.7713 95.8733H35.7077C18.1455 95.8733 5.89598 78.1863 12.4235 61.9012C12.6217 61.4979 12.724 60.9986 12.9286 60.5953C18.0496 51.0509 17.4422 42.2042 17.244 41.0007C16.8412 38.8883 16.138 36.9807 15.537 35.1691C13.9323 30.5473 9.61685 27.4299 4.79635 27.4299H0.282715C0.282715 26.5273 0.685494 25.7207 1.28646 25.119C1.88742 24.5172 2.69296 24.1139 3.59441 24.1139H13.9323C13.9323 24.1139 7.41118 12.4571 11.8225 4.82023C12.2253 4.32092 12.6281 3.71279 13.1268 3.21349C15.032 1.10103 17.7427 0 20.5557 0H46.1479C46.1479 0 38.9235 5.52438 37.9198 15.4785C37.4211 20.1003 41.0333 24.1203 45.7515 24.1203H79.5782C79.5782 24.1203 66.9323 32.1605 76.9697 42.5115H54.2865C50.3738 42.5115 47.5608 38.6899 48.7691 34.9707C49.8751 31.4499 52.8864 27.9356 59.9125 27.4363H49.4724C45.0546 27.4363 41.7429 31.7572 42.9512 36.0781C44.5559 41.7049 45.8602 49.8474 44.4537 59.7952C43.8527 64.0136 42.248 68.0337 40.4387 71.7529C38.4312 76.1762 38.6294 80.5996 39.6331 84.3124C39.6331 84.3124 39.6332 84.4148 39.7355 84.5108C40.2341 85.9191 44.1532 95.8669 55.7953 88.7293C59.5098 86.4184 60.9163 83.5058 61.0122 80.5868C61.3126 73.5517 54.491 66.3181 54.491 66.3181H80.5883C85.607 66.3181 89.7242 70.4406 89.4238 75.4657L89.4046 75.4721Z" fill="url(#paint0_linear_357_165)"/>
<defs>
<linearGradient id="paint0_linear_357_165" x1="44.2427" y1="2.68217" x2="45.3195" y2="88.6333" gradientUnits="userSpaceOnUse">
<stop stop-color="#FDF251"/>
<stop offset="0.49" stop-color="#EB8661"/>
<stop offset="1" stop-color="#EA40CB"/>
</linearGradient>
</defs>
</svg>
