<svg width="66" height="111" viewBox="0 0 66 111" fill="none" xmlns="http://www.w3.org/2000/svg">
<path d="M50.6993 110.487C40.7629 110.487 35.9976 105.54 35.9976 95.3402V80.8052C35.9976 70.6052 40.7629 65.6582 50.6993 65.6582C60.6356 65.6582 65.401 70.6052 65.401 80.8052V95.3402C65.401 105.54 60.6356 110.487 50.6993 110.487ZM45.0214 96.1052C45.0214 100.389 46.8464 102.429 50.6993 102.429C54.5521 102.429 56.3772 100.389 56.3772 96.1052V80.0402C56.3772 75.7562 54.5521 73.7162 50.6993 73.7162C46.8464 73.7162 45.0214 75.7562 45.0214 80.0402V96.1052Z" fill="black"/>
<path d="M16.2425 110.488C7.06661 110.488 0.831055 106.408 0.831055 97.4317C0.831055 93.3008 2.80818 89.5777 7.06661 87.3847V87.1807C4.02487 85.9057 2.04775 82.3867 2.04775 78.0517C2.04775 70.3507 7.47217 65.7607 16.2425 65.7607C25.0128 65.7607 30.4373 70.3507 30.4373 78.0517C30.4373 82.3867 28.7136 85.9057 25.4184 87.1807V87.3847C29.9303 89.6287 31.654 93.3008 31.654 97.4317C31.654 106.408 25.4184 110.488 16.2425 110.488ZM9.90556 96.9217C9.90556 101.104 12.6938 102.787 16.2425 102.787C19.7912 102.787 22.5794 101.104 22.5794 96.9217C22.5794 93.0457 19.7912 91.3117 16.2425 91.3117C12.6938 91.3117 9.90556 93.0457 9.90556 96.9217ZM10.9195 78.4087C10.9195 81.9787 13.0994 83.6617 16.2425 83.6617C19.3856 83.6617 21.5655 81.9787 21.5655 78.4087C21.5655 75.1447 19.3856 73.4107 16.2425 73.4107C13.0994 73.4107 10.9195 75.1447 10.9195 78.4087Z" fill="black"/>
<path d="M50.598 45.4872C42.8416 45.4872 37.4679 41.8662 35.7949 34.8792L43.9569 32.5842C45.1229 36.5112 47.3535 37.6842 50.598 37.6842C54.1974 37.6842 56.1745 35.4402 56.1745 31.4112V28.5552L56.3773 25.8012C54.7044 27.5862 52.0175 28.6062 48.8237 28.6572C41.0673 28.7082 35.7949 23.8122 35.7949 15.7032V14.0712C35.7949 5.8092 41.27 0.658203 50.4459 0.658203C59.5204 0.658203 65.1983 5.80921 65.1983 16.4172V29.3712C65.1983 39.8262 60.0274 45.4872 50.598 45.4872ZM44.6666 15.2952C44.6666 19.0182 46.7452 21.3132 50.2432 21.3132C53.1835 21.3132 55.4141 19.7322 56.1745 17.1312V14.6322C56.1745 10.5012 53.7411 8.3592 50.4966 8.3592C46.8972 8.3592 44.6666 10.5522 44.6666 14.3772V15.2952Z" fill="black"/>
<path d="M1.79395 44.6712V36.9192H13.4539V10.4502H4.37942V4.43217C8.99271 3.97317 11.9838 3.05517 14.4678 1.57617H22.8833V36.9192H30.8425V44.6712H1.79395Z" fill="black"/>
</svg>
