<svg width="38" height="55" viewBox="0 0 38 55" fill="none" xmlns="http://www.w3.org/2000/svg">
<path d="M19.7279 54.1064C9.29855 54.1064 2.99242 49.0434 0.506348 41.9674L9.66236 37.5144C11.7846 42.5164 15.1196 44.7734 19.7279 44.7734C24.2756 44.7734 27.0649 42.3334 27.0649 38.0634C27.0649 33.9154 25.3671 30.6214 17.545 30.6214H10.2081V21.8374H17.7876C24.6394 21.5934 25.549 18.6044 25.549 15.1884C25.549 11.8944 23.0629 9.82037 19.7279 9.82037C16.1504 9.82037 13.8462 11.8334 12.6942 15.4934L3.17433 11.7114C5.47849 5.24537 11.1783 0.609375 19.9705 0.609375C29.369 0.609375 36.1602 6.16037 36.1602 14.7614C36.1602 20.4344 33.4316 24.3994 28.3988 25.7414V26.0464C34.2199 27.3274 37.7974 32.5124 37.7974 38.3074V39.6494C37.7974 48.7384 30.3392 54.1064 19.7279 54.1064Z" fill="#6496FF"/>
</svg>
