<svg width="89" height="72" viewBox="0 0 89 72" fill="none" xmlns="http://www.w3.org/2000/svg">
<path d="M35.126 71.8732C17.6596 71.8732 8.72825 68.7558 7.62222 56.1963C6.81667 47.2536 0.29556 42.3245 0.29556 42.3245H28.8989C31.1046 42.3245 34.8191 42.3245 36.6284 43.6304C45.0611 49.5581 33.6172 63.9292 43.6546 64.6333C54.8939 65.4399 59.6121 37.6964 50.783 33.8811C38.1372 28.3568 2.80811 49.4557 0.29556 23.9334C-2.31288 -2.29937 40.5474 0.113943 40.5474 0.113943H71.2606C59.7208 11.8733 75.1733 18.5051 75.1733 18.5051H43.5587C39.7419 18.5051 37.2357 14.7859 38.8404 11.47C41.3466 6.24645 49.4788 4.33244 49.4788 4.33244H45.7643C42.6508 4.33244 39.6396 4.93417 36.9289 6.34247C23.5798 13.2752 27.4924 24.836 34.6209 25.5402C41.3466 26.1419 48.3728 25.1369 51.9849 24.3367C55.8017 23.6326 59.5098 23.2293 63.3266 23.3317C103.476 24.2343 97.0509 71.8732 35.1196 71.8732H35.126Z" fill="url(#paint0_linear_357_162)"/>
<defs>
<linearGradient id="paint0_linear_357_162" x1="43.7057" y1="-17.9891" x2="44.7825" y2="67.962" gradientUnits="userSpaceOnUse">
<stop stop-color="#FDF251"/>
<stop offset="0.49" stop-color="#EB8661"/>
<stop offset="1" stop-color="#EA40CB"/>
</linearGradient>
</defs>
</svg>
