<svg width="90" height="96" viewBox="0 0 90 96" fill="none" xmlns="http://www.w3.org/2000/svg">
<path d="M89.9646 75.4721V75.5745C89.5618 84.2164 83.4371 95.8733 53.3313 95.8733H36.2677C18.7055 95.8733 6.45604 78.1863 12.9835 61.9012C13.1817 61.4979 13.284 60.9986 13.4886 60.5953C18.6096 51.0509 18.0022 42.2042 17.804 41.0007C17.4013 38.8883 16.698 36.9807 16.0971 35.1691C14.4923 30.5473 10.1769 27.4299 5.3564 27.4299H0.842773C0.842773 26.5273 1.24551 25.7207 1.84648 25.119C2.44744 24.5172 3.25302 24.1139 4.15447 24.1139H14.4923C14.4923 24.1139 7.97124 12.4571 12.3826 4.82023C12.7854 4.32092 13.1881 3.71279 13.6868 3.21349C15.592 1.10103 18.3027 0 21.1157 0H46.7079C46.7079 0 39.4836 5.52438 38.4798 15.4785C37.9811 20.1003 41.5933 24.1203 46.3115 24.1203H80.1382C80.1382 24.1203 67.4923 32.1605 77.5297 42.5115H54.8465C50.9338 42.5115 48.1208 38.6899 49.3291 34.9707C50.4352 31.4499 53.4464 27.9356 60.4726 27.4363H50.0324C45.6147 27.4363 42.303 31.7572 43.5113 36.0781C45.116 41.7049 46.4202 49.8474 45.0137 59.7952C44.4127 64.0136 42.808 68.0337 40.9988 71.7529C38.9913 76.1762 39.1895 80.5996 40.1932 84.3124C40.1932 84.3124 40.1932 84.4148 40.2955 84.5108C40.7941 85.9191 44.7132 95.8669 56.3553 88.7293C60.0698 86.4184 61.4763 83.5058 61.5722 80.5868C61.8727 73.5517 55.0511 66.3181 55.0511 66.3181H81.1483C86.167 66.3181 90.2843 70.4406 89.9838 75.4657L89.9646 75.4721Z" fill="url(#paint0_linear_357_164)"/>
<defs>
<linearGradient id="paint0_linear_357_164" x1="44.8155" y1="3.84082" x2="45.8923" y2="89.7919" gradientUnits="userSpaceOnUse">
<stop stop-color="#FDF251"/>
<stop offset="0.49" stop-color="#EB8661"/>
<stop offset="1" stop-color="#EA40CB"/>
</linearGradient>
</defs>
</svg>
