<svg width="42" height="72" viewBox="0 0 42 72" fill="none" xmlns="http://www.w3.org/2000/svg">
<path d="M27.6398 20.9001C27.1898 23.3101 27.1898 25.8601 27.7898 28.2701C28.1698 29.7001 28.8398 30.9801 29.5898 32.2501C30.1898 33.2301 30.8698 34.2001 31.4698 35.2601C32.5198 36.9101 33.4998 38.5701 34.3998 40.3701C38.1598 47.6601 42.2198 57.7301 38.5298 65.8501C37.0998 69.4601 33.5698 71.8601 29.5898 71.8601H0.0498047C3.2098 70.5801 5.8398 66.8201 7.2698 63.9701C8.9198 60.7401 9.5198 57.0501 9.06981 53.4501C8.83981 51.0401 8.1698 48.7101 7.1898 46.5301C6.1398 43.8201 4.4798 41.4201 3.3598 38.7101C-0.180195 30.3701 -0.550195 21.5001 1.6998 12.7001C3.6598 5.26008 10.4998 0.0800781 18.2398 0.0800781H41.4698C40.2698 0.530078 38.0098 2.18008 36.3598 4.06008C35.2298 5.34008 34.1798 6.69008 33.1998 8.12008C30.5698 11.9501 28.3898 16.2401 27.6398 20.9001Z" fill="url(#paint0_linear_357_190)"/>
<defs>
<linearGradient id="paint0_linear_357_190" x1="20.7598" y1="-0.349922" x2="20.7598" y2="69.4201" gradientUnits="userSpaceOnUse">
<stop stop-color="#FDF251"/>
<stop offset="0.49" stop-color="#EB8661"/>
<stop offset="1" stop-color="#EA40CB"/>
</linearGradient>
</defs>
</svg>
