<svg width="42" height="72" viewBox="0 0 42 72" fill="none" xmlns="http://www.w3.org/2000/svg">
<path d="M27.59 20.9003C27.14 23.3103 27.14 25.8603 27.74 28.2703C28.12 29.7003 28.79 30.9803 29.54 32.2503C30.14 33.2303 30.82 34.2003 31.42 35.2603C32.47 36.9103 33.45 38.5703 34.35 40.3703C38.11 47.6603 42.17 57.7303 38.48 65.8503C37.05 69.4603 33.52 71.8603 29.54 71.8603H0C3.16 70.5803 5.79 66.8203 7.22 63.9703C8.87 60.7403 9.47999 57.0503 9.01999 53.4503C8.78999 51.0403 8.11998 48.7103 7.13998 46.5303C6.08998 43.8203 4.43 41.4203 3.31 38.7103C-0.220002 30.3703 -0.600027 21.5003 1.65997 12.7003C3.60997 5.26031 10.45 0.0703125 18.2 0.0703125H41.43C40.23 0.520312 37.97 2.17031 36.32 4.05031C35.19 5.33031 34.14 6.68031 33.16 8.11031C30.53 11.9403 28.35 16.2303 27.6 20.8903L27.59 20.9003Z" fill="url(#paint0_linear_357_195)"/>
<defs>
<linearGradient id="paint0_linear_357_195" x1="20.71" y1="-0.349688" x2="20.71" y2="69.4203" gradientUnits="userSpaceOnUse">
<stop stop-color="#FDF251"/>
<stop offset="0.49" stop-color="#EB8661"/>
<stop offset="1" stop-color="#EA40CB"/>
</linearGradient>
</defs>
</svg>
