<svg width="189" height="67" viewBox="0 0 189 67" fill="none" xmlns="http://www.w3.org/2000/svg">
<path d="M152.304 58.0696C152.284 61.5096 151.389 64.3496 149.52 66.8296H146.777C148.208 64.9896 149.302 61.3496 149.322 58.0696C149.302 54.7896 148.208 51.1496 146.777 49.3096H149.52C151.389 51.7896 152.284 54.6296 152.304 58.0696Z" fill="black"/>
<path d="M139.944 63.9499C136.843 63.9499 134.636 62.2299 134.576 59.7899H137.518C137.578 60.8099 138.592 61.5099 139.944 61.5099C141.355 61.5099 142.349 60.7299 142.33 59.5899C142.349 58.4499 141.336 57.6299 139.666 57.6299H138.393V55.4699H139.666C141.077 55.4499 142.031 54.6899 142.012 53.5499C142.031 52.4899 141.216 51.7499 139.984 51.7499C138.731 51.7499 137.697 52.4499 137.678 53.5499H134.854C134.914 51.1099 137.101 49.4099 139.984 49.4299C142.906 49.4099 144.854 51.1699 144.835 53.3899C144.854 54.9899 143.761 56.1099 142.171 56.3899V56.5099C144.258 56.7499 145.391 58.0099 145.391 59.7899C145.391 62.2099 143.105 63.9499 139.944 63.9499Z" fill="black"/>
<path d="M124.128 63.7498L130.052 52.1098V52.0298H123.173V49.5898H133.114V52.0698L127.149 63.7498H124.128Z" fill="black"/>
<path d="M116.353 49.4298C119.255 49.4298 122.019 51.1698 121.999 56.3098C122.019 61.1098 119.752 63.9498 116.234 63.9498C113.391 63.9498 111.462 62.1498 111.184 59.7898H114.047C114.285 60.8098 115.1 61.4298 116.234 61.4298C118.142 61.4298 119.156 59.6898 119.176 56.8698H119.017C118.381 58.1298 116.989 58.8698 115.438 58.8698C112.914 58.8698 111.045 56.9498 111.025 54.3098C111.025 51.4698 113.172 49.4098 116.353 49.4298ZM113.888 54.2298C113.868 55.6298 114.902 56.7298 116.353 56.7098C117.764 56.7298 118.858 55.5698 118.858 54.2298C118.858 52.8698 117.804 51.7298 116.353 51.7098C114.922 51.7298 113.848 52.8298 113.888 54.2298Z" fill="black"/>
<path d="M107.968 49.5898V63.7498H105.066V52.3898H104.946L101.726 54.4298V51.8298L105.225 49.5898H107.968Z" fill="black"/>
<path d="M94.8145 58.0696C94.8343 54.6296 95.729 51.7896 97.5977 49.3096H100.341C98.9099 51.1496 97.8164 54.7896 97.7965 58.0696C97.8164 61.3496 98.9099 64.9896 100.341 66.8296H97.5977C95.729 64.3496 94.8343 61.5096 94.8145 58.0696Z" fill="black"/>
<path d="M80.5772 57.5902V63.7502H77.7144V53.1502H80.4579V54.9902H80.5772C81.0543 53.7702 82.1875 53.0102 83.7581 52.9902C85.9449 53.0102 87.3962 54.5102 87.3763 56.9902V63.7502H84.5135V57.5102C84.5135 56.1902 83.8177 55.4102 82.605 55.3902C81.4121 55.4102 80.597 56.2102 80.5772 57.5902Z" fill="black"/>
<path d="M70.7595 63.9502C67.5587 63.9502 65.5707 61.7502 65.5508 58.4702C65.5707 55.2102 67.5587 53.0102 70.7595 52.9902C73.9404 53.0102 75.9086 55.2102 75.9285 58.4702C75.9086 61.7502 73.9404 63.9502 70.7595 63.9502ZM68.4931 58.4702C68.4732 60.3302 69.2486 61.7102 70.7595 61.7102C72.2307 61.7102 73.006 60.3302 72.9861 58.4702C73.006 56.6102 72.2307 55.2102 70.7595 55.2302C69.2486 55.2102 68.4732 56.6102 68.4931 58.4702Z" fill="black"/>
<path d="M59.0329 63.9502C55.8322 63.9502 53.8441 61.7502 53.8242 58.4702C53.8441 55.2102 55.8322 53.0102 59.0329 52.9902C62.2138 53.0102 64.182 55.2102 64.2019 58.4702C64.182 61.7502 62.2138 63.9502 59.0329 63.9502ZM56.7665 58.4702C56.7467 60.3302 57.522 61.7102 59.0329 61.7102C60.5041 61.7102 61.2795 60.3302 61.2596 58.4702C61.2795 56.6102 60.5041 55.2102 59.0329 55.2302C57.522 55.2102 56.7467 56.6102 56.7665 58.4702Z" fill="black"/>
<path d="M36.8096 49.5898H40.3881L44.3244 59.1898H44.4835L48.3801 49.5898H51.9984V63.7498H49.1355V54.4698H49.0163L45.3582 63.6698H43.4099L39.7519 54.4698H39.6326V63.7498H36.8096V49.5898Z" fill="black"/>
<path d="M184.064 39.9502C180.804 39.9502 178.836 37.8502 178.816 34.5102C178.836 31.2302 180.844 29.0102 183.945 28.9902C186.689 29.0102 188.876 30.7702 188.876 34.3902V35.1902H181.679C181.679 36.7902 182.613 37.7902 184.104 37.7902C185.078 37.7902 185.774 37.3502 186.052 36.7502H188.796C188.378 38.6902 186.649 39.9502 184.064 39.9502ZM181.679 33.3902H186.172C186.152 32.0902 185.257 31.1702 183.985 31.1502C182.633 31.1702 181.718 32.1702 181.679 33.3902Z" fill="black"/>
<path d="M170.195 33.5898V39.7498H167.333V25.5898H170.116V30.9898H170.275C170.732 29.7698 171.806 29.0098 173.416 28.9898C175.603 29.0098 177.054 30.4898 177.034 32.9898V39.7498H174.171V33.5098C174.191 32.1898 173.476 31.4098 172.263 31.3898C171.07 31.4098 170.215 32.2098 170.195 33.5898Z" fill="black"/>
<path d="M165.327 29.1498V31.3098H163.339V36.5098C163.339 37.3298 163.756 37.5498 164.333 37.5498C164.631 37.5698 165.128 37.5298 165.486 37.5098V39.7898C165.168 39.8298 164.651 39.8898 163.975 39.9098C161.868 39.8898 160.456 38.9498 160.476 36.8698V31.3098H159.005V29.1498H160.476V26.5898H163.339V29.1498H165.327Z" fill="black"/>
<path d="M153.506 29.1502V31.3102H151.399V39.7502H148.536V31.3102H147.025V29.1502H148.536V28.3502C148.536 26.1102 149.868 24.9502 151.995 24.9502C152.631 24.9502 153.188 25.0102 153.705 25.1102V27.3102C153.287 27.2702 152.969 27.2502 152.83 27.2702C151.896 27.2502 151.399 27.6102 151.399 28.5102V29.1502H153.506Z" fill="black"/>
<path d="M140.905 39.9502C137.704 39.9502 135.716 37.7502 135.696 34.4702C135.716 31.2102 137.704 29.0102 140.905 28.9902C144.085 29.0102 146.054 31.2102 146.073 34.4702C146.054 37.7502 144.085 39.9502 140.905 39.9502ZM138.638 34.4702C138.618 36.3302 139.394 37.7102 140.905 37.7102C142.376 37.7102 143.151 36.3302 143.131 34.4702C143.151 32.6102 142.376 31.2102 140.905 31.2302C139.394 31.2102 138.618 32.6102 138.638 34.4702Z" fill="black"/>
<path d="M124.947 39.9502C121.686 39.9502 119.718 37.8502 119.698 34.5102C119.718 31.2302 121.726 29.0102 124.827 28.9902C127.571 29.0102 129.758 30.7702 129.758 34.3902V35.1902H122.561C122.561 36.7902 123.495 37.7902 124.986 37.7902C125.961 37.7902 126.656 37.3502 126.935 36.7502H129.678C129.261 38.6902 127.531 39.9502 124.947 39.9502ZM122.561 33.3902H127.054C127.034 32.0902 126.14 31.1702 124.867 31.1502C123.515 31.1702 122.601 32.1702 122.561 33.3902Z" fill="black"/>
<path d="M111.859 39.9098C109.454 39.9298 107.565 38.0098 107.565 34.4698C107.565 30.8298 109.533 29.0098 111.859 28.9898C113.629 29.0098 114.464 30.0698 114.841 30.9098H114.961V25.5898H117.823V39.7498H115V38.0698H114.841C114.444 38.9298 113.569 39.9298 111.859 39.9098ZM110.507 34.4298C110.507 36.3098 111.302 37.6098 112.774 37.6298C114.185 37.6098 115 36.3498 115 34.4298C115 32.5298 114.205 31.3098 112.774 31.3098C111.283 31.3098 110.507 32.5898 110.507 34.4298Z" fill="black"/>
<path d="M102.837 39.7495V29.1495H105.7V39.7495H102.837ZM102.678 26.2695C102.698 25.4695 103.393 24.8095 104.268 24.8295C105.123 24.8095 105.819 25.4695 105.819 26.2695C105.819 27.0895 105.123 27.7495 104.268 27.7495C103.393 27.7495 102.698 27.0895 102.678 26.2695Z" fill="black"/>
<path d="M97.9885 29.6699C97.909 28.5299 97.0144 27.8699 95.6028 27.8699C94.1118 27.8699 93.2967 28.5499 93.2967 29.4699C93.2569 30.5299 94.3106 30.9899 95.5233 31.2699L96.7957 31.5899C99.2012 32.1099 100.99 33.3499 101.01 35.7099C100.99 38.2899 98.9826 39.9499 95.5631 39.9499C92.1635 39.9499 89.9965 38.3699 89.917 35.3499H92.74C92.8593 36.7699 93.9726 37.4699 95.5233 37.4699C97.0541 37.4699 98.0482 36.7699 98.068 35.7099C98.0482 34.7499 97.1933 34.2899 95.6426 33.9099L94.1317 33.5499C91.746 32.9499 90.2947 31.7699 90.2748 29.6699C90.2748 27.1299 92.5412 25.4099 95.6028 25.4299C98.7241 25.4099 100.772 27.1499 100.812 29.6699H97.9885Z" fill="black"/>
<path d="M74.647 39.7498V25.5898H77.5098V33.1898H77.6688L81.128 29.1498H84.4282L80.472 33.7498L84.627 39.7498H81.2473L78.3249 35.4498L77.5098 36.3898V39.7498H74.647Z" fill="black"/>
<path d="M66.9004 39.7502V29.1502H69.6837V30.9902H69.803C70.1807 29.6702 71.1548 28.9902 72.3477 28.9902C72.6459 28.9902 73.0037 29.0302 73.2622 29.0702V31.6702C73.0037 31.5702 72.4471 31.5102 72.0296 31.5102C70.7374 31.5102 69.7831 32.4102 69.7632 33.7102V39.7502H66.9004Z" fill="black"/>
<path d="M55.3374 36.7902C55.3374 34.4102 57.2261 33.6502 59.234 33.5102L61.8582 33.3902V32.5502C61.8582 31.6302 61.2419 31.1302 60.1883 31.1102C59.1942 31.1302 58.5779 31.5702 58.4388 32.3102H55.6953C55.8543 30.4502 57.4646 29.0102 60.2678 28.9902C62.5541 29.0102 64.7211 30.0502 64.7211 32.5902V39.7502H62.0173V38.2702H61.898C61.401 39.2702 60.407 39.9502 58.8364 39.9502C56.8285 39.9502 55.3374 38.8902 55.3374 36.7902ZM58.0809 36.7102C58.0809 37.5102 58.737 37.9502 59.6316 37.9502C60.9636 37.9502 61.8781 37.0702 61.8582 35.9502V35.1902C61.4209 35.2102 60.1883 35.2702 59.7111 35.3102C58.7171 35.4102 58.0809 35.8902 58.0809 36.7102Z" fill="black"/>
<path d="M46.9045 39.7498H41.9741V25.5898H46.984C51.1987 25.6098 53.8031 28.2498 53.7832 32.6698C53.8031 37.0898 51.1987 39.7498 46.9045 39.7498ZM44.8767 37.2298H46.7852C49.4691 37.2298 50.8806 35.8298 50.8806 32.6698C50.8806 29.5098 49.4691 28.1298 46.825 28.1098H44.8767V37.2298Z" fill="black"/>
<path d="M30.708 39.9502C27.4475 39.9502 25.4794 37.8502 25.4595 34.5102C25.4794 31.2302 27.4873 29.0102 30.5887 28.9902C33.3322 29.0102 35.5191 30.7702 35.5191 34.3902V35.1902H28.3223C28.3223 36.7902 29.2567 37.7902 30.7477 37.7902C31.7219 37.7902 32.4177 37.3502 32.696 36.7502H35.4395C35.022 38.6902 33.2924 39.9502 30.708 39.9502ZM28.3223 33.3902H32.8153C32.7954 32.0902 31.9008 31.1702 30.6284 31.1502C29.2766 31.1702 28.362 32.1702 28.3223 33.3902Z" fill="black"/>
<path d="M16.8389 33.5898V39.7498H13.9761V25.5898H16.7594V30.9898H16.9184C17.3757 29.7698 18.4492 29.0098 20.0595 28.9898C22.2464 29.0098 23.6977 30.4898 23.6778 32.9898V39.7498H20.815V33.5098C20.8349 32.1898 20.1192 31.4098 18.9065 31.3898C17.7136 31.4098 16.8588 32.2098 16.8389 33.5898Z" fill="black"/>
<path d="M0.743652 28.0298V25.5898H12.2346V28.0298H7.94043V39.7498H5.03786V28.0298H0.743652Z" fill="black"/>
<path d="M135.535 15.9098C133.13 15.9298 131.241 14.0098 131.241 10.4698C131.241 6.82984 133.209 5.00984 135.535 4.98984C137.305 5.00984 138.14 6.06984 138.518 6.90984H138.637V1.58984H141.5V15.7498H138.677V14.0698H138.518C138.12 14.9298 137.245 15.9298 135.535 15.9098ZM134.184 10.4298C134.184 12.3098 134.979 13.6098 136.45 13.6298C137.861 13.6098 138.677 12.3498 138.677 10.4298C138.677 8.52984 137.881 7.30984 136.45 7.30984C134.959 7.30984 134.184 8.58984 134.184 10.4298Z" fill="black"/>
<path d="M122.534 19.7104C121.958 19.7304 121.441 19.7104 121.063 19.6704V17.4304C121.441 17.4504 121.878 17.4704 122.216 17.4704C122.813 17.4704 123.27 17.4104 123.608 16.5104L123.767 16.0304L119.99 5.15039H123.012L125.238 12.9504H125.358L127.584 5.15039H130.606L126.511 16.9104C125.894 18.6304 124.761 19.7304 122.534 19.7104Z" fill="black"/>
<path d="M114.219 15.9502C111.018 15.9502 109.03 13.7502 109.01 10.4702C109.03 7.21024 111.018 5.01024 114.219 4.99023C117.4 5.01024 119.368 7.21024 119.388 10.4702C119.368 13.7502 117.4 15.9502 114.219 15.9502ZM111.953 10.4702C111.933 12.3302 112.708 13.7102 114.219 13.7102C115.69 13.7102 116.465 12.3302 116.446 10.4702C116.465 8.61024 115.69 7.21024 114.219 7.23024C112.708 7.21024 111.933 8.61024 111.953 10.4702Z" fill="black"/>
<path d="M107.185 1.58984V15.7498H104.322V1.58984H107.185Z" fill="black"/>
<path d="M93.2383 15.7498V1.58984H102.503V4.02984H96.1409V7.46984H101.866V9.86984H96.1409V15.7498H93.2383Z" fill="black"/>
<path d="M77.4912 15.7498V1.58984H80.354V9.18984H80.5131L83.9723 5.14984H87.2725L83.3162 9.74984L87.4713 15.7498H84.0916L81.1691 11.4498L80.354 12.3898V15.7498H77.4912Z" fill="black"/>
<path d="M68.4722 9.59023V15.7502H65.6094V5.15024H68.3529V6.99024H68.4722C68.9493 5.77024 70.0825 5.01024 71.6531 4.99023C73.8399 5.01024 75.2912 6.51024 75.2714 8.99024V15.7502H72.4085V9.51024C72.4085 8.19024 71.7127 7.41023 70.5 7.39023C69.3072 7.41023 68.4921 8.21024 68.4722 9.59023Z" fill="black"/>
<path d="M60.4838 15.7495V5.14955H63.3466V15.7495H60.4838ZM60.3247 2.26954C60.3446 1.46954 61.0404 0.809545 61.9152 0.829544C62.77 0.809545 63.4658 1.46954 63.4658 2.26954C63.4658 3.08955 62.77 3.74955 61.9152 3.74955C61.0404 3.74955 60.3446 3.08955 60.3247 2.26954Z" fill="black"/>
<path d="M48.1577 15.7498V1.58984H53.6448C56.8654 1.60984 58.6944 3.58984 58.6944 6.38984C58.6944 9.18984 56.8257 11.1498 53.605 11.1498H51.0603V15.7498H48.1577ZM51.0603 8.78984H53.1279C54.8575 8.76984 55.6925 7.78984 55.6726 6.38984C55.6925 4.96984 54.8575 4.00984 53.1279 4.02984H51.0603V8.78984Z" fill="black"/>
</svg>
